<svg width="33" height="33" viewBox="0 0 33 33" fill="none" xmlns="http://www.w3.org/2000/svg">
<path fill-rule="evenodd" clip-rule="evenodd" d="M13.6108 7.85855C20.7994 1.00731 29.1777 1.8311 29.8828 1.91501C30.5133 1.99005 31.0105 2.48699 31.0856 3.11744C31.1698 3.82155 31.9933 12.2014 25.1422 19.3899C21.0041 23.7316 16.3845 25.1957 14.818 25.6256C14.3414 25.7565 13.8312 25.6216 13.4818 25.272L7.72894 19.5191C7.37945 19.1697 7.24442 18.6595 7.37525 18.1829C7.8052 16.6166 9.26894 11.9967 13.6108 7.85855Z" fill="#FFBBA8"/>
<path d="M14.761 6.83437C14.3752 7.15524 13.9914 7.49637 13.6109 7.859C10.6741 10.658 9.05407 13.6774 8.18005 15.8232C7.09683 15.8054 6.15774 15.9029 5.41953 16.0271C4.85075 16.1228 4.40459 16.2338 4.10805 16.318C3.9599 16.3601 3.84953 16.3954 3.78031 16.4186C3.74573 16.4302 3.72146 16.4388 3.70796 16.4436L3.69596 16.448C3.13459 16.6606 2.49987 16.4844 2.12844 16.0124C1.75605 15.5392 1.7349 14.8788 2.07624 14.3827L6.21166 8.37272C7.08399 7.14057 8.14826 6.48756 9.40692 6.28169C10.5444 6.09565 11.7613 6.29704 12.8786 6.49735L14.761 6.83437Z" fill="#FF3800"/>
<path d="M21.541 14.209C23.059 14.209 24.291 12.9779 24.291 11.459C24.291 9.9401 23.059 8.70898 21.541 8.70898C20.023 8.70898 18.791 9.9401 18.791 11.459C18.791 12.9779 20.023 14.209 21.541 14.209Z" fill="#FF3800"/>
<path fill-rule="evenodd" clip-rule="evenodd" d="M4.88557 22.239C5.34696 22.0069 5.90517 22.0969 6.27034 22.4621L10.5385 26.7312C10.9036 27.0964 10.9934 27.6544 10.7614 28.1157C10.0453 29.5393 8.57645 30.5418 6.84925 30.5418H3.65632C2.99505 30.5418 2.45898 30.0057 2.45898 29.3444V26.1517C2.45898 24.4237 3.46198 22.9551 4.88557 22.239Z" fill="#FF3800"/>
<path d="M17.1769 24.8203C17.1947 25.9034 17.0972 26.8422 16.973 27.5803C16.8773 28.1492 16.7663 28.5953 16.6821 28.8919C16.64 29.04 16.6047 29.1504 16.5815 29.2197C16.5699 29.2542 16.5613 29.2786 16.5565 29.2919L16.5521 29.304C16.3395 29.8654 16.5157 30.5001 16.9876 30.8715C17.4608 31.2439 18.1213 31.265 18.6174 30.9238L24.6124 26.799L24.6276 26.7883C25.8598 25.916 26.5128 24.8518 26.7185 23.593C26.9044 22.4554 26.7031 21.2387 26.5027 20.1212L26.1658 18.2393C25.8449 18.6251 25.5039 19.0088 25.1413 19.3892C22.3422 22.326 19.3227 23.9463 17.1769 24.8203Z" fill="#FF3800"/>
</svg>
