<svg width="35" height="35" viewBox="0 0 35 35" fill="none" xmlns="http://www.w3.org/2000/svg">
<path d="M26.1796 13.3996C25.8179 8.90016 22.0923 5.34766 17.4996 5.34766C12.6676 5.34766 8.74957 9.26571 8.74957 14.0977C8.74957 14.7782 8.84484 15.4316 8.99068 16.0674C5.8854 16.1977 3.40234 18.7391 3.40234 21.8754C3.40234 25.0974 6.01373 27.7088 9.23568 27.7088H24.3051C28.3321 27.7088 31.5968 24.4441 31.5968 20.4171C31.5968 17.0416 29.2926 14.2299 26.1796 13.3996Z" fill="#FFBBA8"/>
<path d="M26.1796 13.3996C25.8179 8.90016 22.0923 5.34766 17.4996 5.34766C12.6676 5.34766 8.74957 9.26571 8.74957 14.0977C8.74957 14.7782 8.84484 15.4316 8.99068 16.0674C5.8854 16.1977 3.40234 18.7391 3.40234 21.8754C3.40234 25.0974 6.01373 27.7088 9.23568 27.7088H24.3051C28.3321 27.7088 31.5968 24.4441 31.5968 20.4171C31.5968 17.0416 29.2926 14.2299 26.1796 13.3996Z" stroke="#FF3800" stroke-width="1.5" stroke-linecap="round" stroke-linejoin="round"/>
<path d="M18.8711 15.5556C20.2069 14.0642 22.1455 13.125 24.3058 13.125C24.9533 13.125 25.5833 13.2397 26.1803 13.3992" stroke="#FF3800" stroke-width="1.5" stroke-linecap="round" stroke-linejoin="round"/>
</svg>
