<svg width="47" height="50" viewBox="0 0 47 50" fill="none" xmlns="http://www.w3.org/2000/svg">
<g filter="url(#filter0_d_185_3133)">
<path d="M7.80922 28.7336C7.80922 29.3672 8.32287 29.8808 8.95644 29.8808C9.59001 29.8808 10.1037 29.3672 10.1037 28.7336V19.7658C10.1037 19.3017 9.8242 18.8835 9.39544 18.7059C8.96699 18.5285 8.47338 18.6266 8.14528 18.9547L5.23837 21.8616C4.79034 22.3096 4.79034 23.036 5.23837 23.4839C5.68639 23.9319 6.41282 23.9319 6.86069 23.4839L7.80922 22.5354V28.7336Z" fill="white"/>
</g>
<g filter="url(#filter1_d_185_3133)">
<path d="M14.5853 8.86525L15.5338 7.91673V14.1149C15.5338 14.7485 16.0475 15.2622 16.681 15.2622C17.3146 15.2622 17.8283 14.7485 17.8283 14.1149V5.14718C17.8283 4.68309 17.5488 4.26489 17.1201 4.08729C16.6916 3.90986 16.198 4.00791 15.8699 4.33601L12.963 7.24292C12.5149 7.69095 12.5149 8.41737 12.963 8.86525C13.411 9.31328 14.1374 9.31328 14.5853 8.86525Z" fill="white"/>
</g>
<g filter="url(#filter2_d_185_3133)">
<path d="M27.6689 18.7059C27.2404 18.5285 26.7468 18.6266 26.4187 18.9547L23.5118 21.8616C23.0638 22.3096 23.0638 23.036 23.5118 23.4839C23.9598 23.9319 24.6863 23.9319 25.1341 23.4839L26.0827 22.5354V28.7336C26.0827 29.3672 26.5963 29.8808 27.2299 29.8808C27.8635 29.8808 28.3771 29.3672 28.3771 28.7336V19.7658C28.3771 19.3019 28.0976 18.8835 27.6689 18.7059Z" fill="white"/>
</g>
<g filter="url(#filter3_d_185_3133)">
<path d="M22.6826 32.8251C22.2541 32.6477 21.7605 32.7457 21.4324 33.0738L18.5255 35.9807C18.0774 36.4287 18.0774 37.1552 18.5255 37.603C18.9735 38.0511 19.6999 38.0511 20.1478 37.603L21.0963 36.6545V40.0498C21.0963 40.6834 21.61 41.1971 22.2435 41.1971C22.8771 41.1971 23.3908 40.6834 23.3908 40.0498V33.885C23.3908 33.4209 23.1113 33.0027 22.6826 32.8251Z" fill="white"/>
</g>
<g filter="url(#filter4_d_185_3133)">
<path d="M20.7369 25.9379V22.5614C20.7369 20.3874 18.9682 18.6187 16.7941 18.6187H16.7377C14.5636 18.6187 12.7949 20.3874 12.7949 22.5614V25.9379C12.7949 28.112 14.5636 29.8807 16.7377 29.8807H16.7941C18.9682 29.8807 20.7369 28.112 20.7369 25.9379ZM18.4425 25.9379C18.4425 26.8468 17.703 27.5863 16.7941 27.5863H16.7377C15.8288 27.5863 15.0894 26.8468 15.0894 25.9379V22.5614C15.0894 21.6525 15.8288 20.9131 16.7377 20.9131H16.7941C17.703 20.9131 18.4425 21.6525 18.4425 22.5614V25.9379Z" fill="white"/>
</g>
<g filter="url(#filter5_d_185_3133)">
<path d="M35.1535 18.6184H35.0971C32.923 18.6184 31.1543 20.3871 31.1543 22.5612V25.9377C31.1543 28.1118 32.923 29.8805 35.0971 29.8805H35.1535C37.3276 29.8805 39.0963 28.1118 39.0963 25.9377V22.5612C39.0963 20.3873 37.3276 18.6184 35.1535 18.6184ZM36.8018 25.9378C36.8018 26.8468 36.0624 27.5862 35.1535 27.5862H35.0971C34.1882 27.5862 33.4487 26.8468 33.4487 25.9378V22.5613C33.4487 21.6524 34.1882 20.913 35.0971 20.913H35.1535C36.0624 20.913 36.8018 21.6524 36.8018 22.5613V25.9378Z" fill="white"/>
</g>
<g filter="url(#filter6_d_185_3133)">
<path d="M24.5188 4H24.4623C22.2882 4 20.5195 5.76871 20.5195 7.94278V11.3193C20.5195 13.4933 22.2882 15.2621 24.4623 15.2621H24.5188C25.1523 15.2621 25.666 14.7484 25.666 14.1148C25.666 13.4813 25.1523 12.9676 24.5188 12.9676H24.4623C23.5534 12.9676 22.814 12.2282 22.814 11.3193V7.94278C22.814 7.03387 23.5534 6.29445 24.4623 6.29445H24.5188C25.4277 6.29445 26.1671 7.03387 26.1671 7.94278C26.1671 8.57635 26.6807 9.09 27.3143 9.09C27.9479 9.09 28.4615 8.57635 28.4615 7.94278C28.4617 5.76871 26.693 4 24.5188 4Z" fill="white"/>
</g>
<g filter="url(#filter7_d_185_3133)">
<path d="M35.1535 4H35.0971C32.923 4 31.1543 5.76871 31.1543 7.94278V11.3193C31.1543 13.4933 32.923 15.2621 35.0971 15.2621H35.1535C37.3276 15.2621 39.0963 13.4933 39.0963 11.3193V7.94278C39.0963 5.76871 37.3276 4 35.1535 4ZM36.8018 11.3194C36.8018 12.2283 36.0624 12.9678 35.1535 12.9678H35.0971C34.1882 12.9678 33.4487 12.2283 33.4487 11.3194V7.94278C33.4487 7.03387 34.1882 6.29445 35.0971 6.29445H35.1535C36.0624 6.29445 36.8018 7.03387 36.8018 7.94278V11.3194Z" fill="white"/>
</g>
<g filter="url(#filter8_d_185_3133)">
<path d="M11.4348 32.7378H11.3783C9.20426 32.7378 7.43555 34.5065 7.43555 36.6806V40.0571C7.43555 42.2311 9.20426 43.9999 11.3783 43.9999H11.4348C13.6088 43.9999 15.3775 42.2311 15.3775 40.0571V36.6806C15.3777 34.5067 13.609 32.7378 11.4348 32.7378ZM13.0832 40.0572C13.0832 40.9661 12.3438 41.7056 11.4349 41.7056H11.3785C10.4696 41.7056 9.73015 40.9661 9.73015 40.0572V36.6806C9.73015 35.7717 10.4696 35.0322 11.3785 35.0322H11.4349C12.3438 35.0322 13.0832 35.7717 13.0832 36.6806V40.0572Z" fill="white"/>
</g>
<defs>
<filter id="filter0_d_185_3133" x="0.902344" y="16.6187" width="13.2012" height="19.2622" filterUnits="userSpaceOnUse" color-interpolation-filters="sRGB">
<feFlood flood-opacity="0" result="BackgroundImageFix"/>
<feColorMatrix in="SourceAlpha" type="matrix" values="0 0 0 0 0 0 0 0 0 0 0 0 0 0 0 0 0 0 127 0" result="hardAlpha"/>
<feOffset dy="2"/>
<feGaussianBlur stdDeviation="2"/>
<feComposite in2="hardAlpha" operator="out"/>
<feColorMatrix type="matrix" values="0 0 0 0 0 0 0 0 0 0 0 0 0 0 0 0 0 0 0.54 0"/>
<feBlend mode="normal" in2="BackgroundImageFix" result="effect1_dropShadow_185_3133"/>
<feBlend mode="normal" in="SourceGraphic" in2="effect1_dropShadow_185_3133" result="shape"/>
</filter>
<filter id="filter1_d_185_3133" x="8.62695" y="2" width="13.2012" height="19.2622" filterUnits="userSpaceOnUse" color-interpolation-filters="sRGB">
<feFlood flood-opacity="0" result="BackgroundImageFix"/>
<feColorMatrix in="SourceAlpha" type="matrix" values="0 0 0 0 0 0 0 0 0 0 0 0 0 0 0 0 0 0 127 0" result="hardAlpha"/>
<feOffset dy="2"/>
<feGaussianBlur stdDeviation="2"/>
<feComposite in2="hardAlpha" operator="out"/>
<feColorMatrix type="matrix" values="0 0 0 0 0 0 0 0 0 0 0 0 0 0 0 0 0 0 0.54 0"/>
<feBlend mode="normal" in2="BackgroundImageFix" result="effect1_dropShadow_185_3133"/>
<feBlend mode="normal" in="SourceGraphic" in2="effect1_dropShadow_185_3133" result="shape"/>
</filter>
<filter id="filter2_d_185_3133" x="19.1758" y="16.6187" width="13.2012" height="19.2622" filterUnits="userSpaceOnUse" color-interpolation-filters="sRGB">
<feFlood flood-opacity="0" result="BackgroundImageFix"/>
<feColorMatrix in="SourceAlpha" type="matrix" values="0 0 0 0 0 0 0 0 0 0 0 0 0 0 0 0 0 0 127 0" result="hardAlpha"/>
<feOffset dy="2"/>
<feGaussianBlur stdDeviation="2"/>
<feComposite in2="hardAlpha" operator="out"/>
<feColorMatrix type="matrix" values="0 0 0 0 0 0 0 0 0 0 0 0 0 0 0 0 0 0 0.54 0"/>
<feBlend mode="normal" in2="BackgroundImageFix" result="effect1_dropShadow_185_3133"/>
<feBlend mode="normal" in="SourceGraphic" in2="effect1_dropShadow_185_3133" result="shape"/>
</filter>
<filter id="filter3_d_185_3133" x="14.1895" y="30.7378" width="13.2012" height="16.4592" filterUnits="userSpaceOnUse" color-interpolation-filters="sRGB">
<feFlood flood-opacity="0" result="BackgroundImageFix"/>
<feColorMatrix in="SourceAlpha" type="matrix" values="0 0 0 0 0 0 0 0 0 0 0 0 0 0 0 0 0 0 127 0" result="hardAlpha"/>
<feOffset dy="2"/>
<feGaussianBlur stdDeviation="2"/>
<feComposite in2="hardAlpha" operator="out"/>
<feColorMatrix type="matrix" values="0 0 0 0 0 0 0 0 0 0 0 0 0 0 0 0 0 0 0.54 0"/>
<feBlend mode="normal" in2="BackgroundImageFix" result="effect1_dropShadow_185_3133"/>
<feBlend mode="normal" in="SourceGraphic" in2="effect1_dropShadow_185_3133" result="shape"/>
</filter>
<filter id="filter4_d_185_3133" x="8.79492" y="16.6187" width="15.9414" height="19.262" filterUnits="userSpaceOnUse" color-interpolation-filters="sRGB">
<feFlood flood-opacity="0" result="BackgroundImageFix"/>
<feColorMatrix in="SourceAlpha" type="matrix" values="0 0 0 0 0 0 0 0 0 0 0 0 0 0 0 0 0 0 127 0" result="hardAlpha"/>
<feOffset dy="2"/>
<feGaussianBlur stdDeviation="2"/>
<feComposite in2="hardAlpha" operator="out"/>
<feColorMatrix type="matrix" values="0 0 0 0 0 0 0 0 0 0 0 0 0 0 0 0 0 0 0.54 0"/>
<feBlend mode="normal" in2="BackgroundImageFix" result="effect1_dropShadow_185_3133"/>
<feBlend mode="normal" in="SourceGraphic" in2="effect1_dropShadow_185_3133" result="shape"/>
</filter>
<filter id="filter5_d_185_3133" x="27.1543" y="16.6184" width="15.9414" height="19.262" filterUnits="userSpaceOnUse" color-interpolation-filters="sRGB">
<feFlood flood-opacity="0" result="BackgroundImageFix"/>
<feColorMatrix in="SourceAlpha" type="matrix" values="0 0 0 0 0 0 0 0 0 0 0 0 0 0 0 0 0 0 127 0" result="hardAlpha"/>
<feOffset dy="2"/>
<feGaussianBlur stdDeviation="2"/>
<feComposite in2="hardAlpha" operator="out"/>
<feColorMatrix type="matrix" values="0 0 0 0 0 0 0 0 0 0 0 0 0 0 0 0 0 0 0.54 0"/>
<feBlend mode="normal" in2="BackgroundImageFix" result="effect1_dropShadow_185_3133"/>
<feBlend mode="normal" in="SourceGraphic" in2="effect1_dropShadow_185_3133" result="shape"/>
</filter>
<filter id="filter6_d_185_3133" x="16.5195" y="2" width="15.9414" height="19.262" filterUnits="userSpaceOnUse" color-interpolation-filters="sRGB">
<feFlood flood-opacity="0" result="BackgroundImageFix"/>
<feColorMatrix in="SourceAlpha" type="matrix" values="0 0 0 0 0 0 0 0 0 0 0 0 0 0 0 0 0 0 127 0" result="hardAlpha"/>
<feOffset dy="2"/>
<feGaussianBlur stdDeviation="2"/>
<feComposite in2="hardAlpha" operator="out"/>
<feColorMatrix type="matrix" values="0 0 0 0 0 0 0 0 0 0 0 0 0 0 0 0 0 0 0.54 0"/>
<feBlend mode="normal" in2="BackgroundImageFix" result="effect1_dropShadow_185_3133"/>
<feBlend mode="normal" in="SourceGraphic" in2="effect1_dropShadow_185_3133" result="shape"/>
</filter>
<filter id="filter7_d_185_3133" x="27.1543" y="2" width="15.9414" height="19.262" filterUnits="userSpaceOnUse" color-interpolation-filters="sRGB">
<feFlood flood-opacity="0" result="BackgroundImageFix"/>
<feColorMatrix in="SourceAlpha" type="matrix" values="0 0 0 0 0 0 0 0 0 0 0 0 0 0 0 0 0 0 127 0" result="hardAlpha"/>
<feOffset dy="2"/>
<feGaussianBlur stdDeviation="2"/>
<feComposite in2="hardAlpha" operator="out"/>
<feColorMatrix type="matrix" values="0 0 0 0 0 0 0 0 0 0 0 0 0 0 0 0 0 0 0.54 0"/>
<feBlend mode="normal" in2="BackgroundImageFix" result="effect1_dropShadow_185_3133"/>
<feBlend mode="normal" in="SourceGraphic" in2="effect1_dropShadow_185_3133" result="shape"/>
</filter>
<filter id="filter8_d_185_3133" x="3.43555" y="30.7378" width="15.9414" height="19.262" filterUnits="userSpaceOnUse" color-interpolation-filters="sRGB">
<feFlood flood-opacity="0" result="BackgroundImageFix"/>
<feColorMatrix in="SourceAlpha" type="matrix" values="0 0 0 0 0 0 0 0 0 0 0 0 0 0 0 0 0 0 127 0" result="hardAlpha"/>
<feOffset dy="2"/>
<feGaussianBlur stdDeviation="2"/>
<feComposite in2="hardAlpha" operator="out"/>
<feColorMatrix type="matrix" values="0 0 0 0 0 0 0 0 0 0 0 0 0 0 0 0 0 0 0.54 0"/>
<feBlend mode="normal" in2="BackgroundImageFix" result="effect1_dropShadow_185_3133"/>
<feBlend mode="normal" in="SourceGraphic" in2="effect1_dropShadow_185_3133" result="shape"/>
</filter>
</defs>
</svg>
