<svg width="45" height="50" viewBox="0 0 45 50" fill="none" xmlns="http://www.w3.org/2000/svg">
<g filter="url(#filter0_d_185_3130)">
<path d="M22.5 36.232C17.5256 36.232 12.8371 35.5085 9.29844 34.1953C7.4398 33.5054 5.99237 32.6804 5 31.7625V37.9953C5 39.4367 6.76621 40.9187 9.84514 42.0617C13.2131 43.3117 17.7073 44 22.5 44C27.2927 44 31.7869 43.3117 35.1549 42.0617C38.2338 40.9187 40 39.4367 40 37.9953V31.7625C39.0076 32.6804 37.5602 33.5054 35.7008 34.1953C32.1629 35.5085 27.4744 36.232 22.5 36.232ZM30.4961 39.8445C30.486 39.8945 30.4711 39.9434 30.4515 39.9906C30.4317 40.0377 30.4076 40.083 30.3794 40.1257C30.3507 40.1684 30.3179 40.2082 30.2815 40.2445C30.2454 40.2805 30.2057 40.313 30.1633 40.3414C30.1204 40.3694 30.075 40.3935 30.0278 40.4132C29.9805 40.4328 29.9314 40.4477 29.8813 40.4578C29.7802 40.4776 29.6762 40.4776 29.575 40.4578C29.5249 40.4477 29.4758 40.4328 29.4286 40.4132C29.3334 40.3742 29.2469 40.3169 29.174 40.2445C29.1378 40.2082 29.1053 40.1684 29.0769 40.1257C29.0488 40.083 29.0246 40.0377 29.0048 39.9906C28.9853 39.9434 28.9703 39.8945 28.9602 39.8445C28.9502 39.7943 28.9452 39.7433 28.9453 39.6921C28.945 39.6397 28.95 39.5873 28.9602 39.5359C28.9803 39.4357 29.02 39.3404 29.0769 39.2554C29.1051 39.2126 29.1376 39.1728 29.174 39.1367C29.2467 39.0638 29.3332 39.0061 29.4286 38.9671C29.4758 38.9476 29.5249 38.9327 29.575 38.9226C29.6761 38.9023 29.7802 38.9023 29.8813 38.9226C29.9314 38.9327 29.9805 38.9476 30.0278 38.9671C30.075 38.9869 30.1204 39.0109 30.1633 39.039C30.2058 39.0676 30.2454 39.1003 30.2815 39.1367C30.3181 39.1728 30.3509 39.2126 30.3794 39.2554C30.4363 39.3404 30.476 39.4357 30.4961 39.5359C30.5064 39.5873 30.5114 39.6397 30.511 39.6921C30.5111 39.7433 30.5062 39.7943 30.4961 39.8445ZM33.9017 39C33.8916 39.05 33.8766 39.0989 33.857 39.146C33.8376 39.1934 33.8134 39.2386 33.785 39.2812C33.7562 39.3238 33.7235 39.3636 33.6871 39.4C33.5399 39.546 33.3409 39.6283 33.1333 39.6289C33.082 39.6287 33.0308 39.6235 32.9806 39.6132C32.9303 39.6035 32.8812 39.5886 32.8341 39.5687C32.7867 39.5493 32.7413 39.5252 32.6986 39.4968C32.6127 39.4403 32.5391 39.3669 32.4824 39.2812C32.454 39.2386 32.4298 39.1934 32.4104 39.146C32.3908 39.0989 32.3758 39.05 32.3657 39C32.3449 38.8995 32.3449 38.7958 32.3657 38.6953C32.3758 38.6452 32.3908 38.5963 32.4104 38.5492C32.4298 38.5018 32.454 38.4566 32.4824 38.414C32.5391 38.3283 32.6127 38.2549 32.6986 38.1984C32.7411 38.1697 32.7865 38.1456 32.8341 38.1265C32.8812 38.1066 32.9303 38.0917 32.9806 38.082C33.1066 38.0571 33.2368 38.0636 33.3597 38.1008C33.4827 38.138 33.5945 38.2048 33.6855 38.2953C33.7221 38.3314 33.7549 38.3712 33.7834 38.414C33.8119 38.4566 33.836 38.5018 33.8555 38.5492C33.875 38.5963 33.89 38.6452 33.9001 38.6953C33.92 38.7959 33.92 38.8994 33.9001 39H33.9017ZM35.7674 37.8468C35.7775 37.7968 35.7924 37.7479 35.812 37.7007C35.8315 37.6534 35.8556 37.6081 35.8841 37.5656C35.9123 37.5228 35.9448 37.483 35.9812 37.4468C36.0725 37.3569 36.1844 37.2904 36.3072 37.2533C36.43 37.2161 36.5601 37.2093 36.6861 37.2335C36.7362 37.2439 36.7852 37.2588 36.8326 37.2781C36.8797 37.2977 36.9248 37.3217 36.9673 37.35C37.0102 37.3781 37.0501 37.4106 37.0863 37.4468C37.1772 37.5375 37.2443 37.649 37.2817 37.7716C37.3191 37.8943 37.3257 38.0242 37.3009 38.15C37.2906 38.1999 37.2757 38.2488 37.2563 38.296C37.1768 38.4874 37.0244 38.6394 36.8326 38.7187C36.7852 38.738 36.7362 38.7529 36.6861 38.7632C36.56 38.788 36.4298 38.7814 36.3068 38.7441C36.1839 38.7067 36.0721 38.6398 35.9812 38.5492C35.9448 38.513 35.9123 38.4732 35.8841 38.4304C35.8558 38.388 35.8316 38.343 35.812 38.296C35.7926 38.2488 35.7777 38.1999 35.7674 38.15C35.7569 38.0985 35.7516 38.0462 35.7517 37.9937C35.7506 37.9432 35.7546 37.8927 35.7634 37.8429L35.7674 37.8468Z" fill="white"/>
</g>
<g filter="url(#filter1_d_185_3130)">
<path d="M22.5 26.9015C17.5256 26.9015 12.8371 26.1781 9.29844 24.8648C7.4398 24.175 5.99237 23.35 5 22.432V28.6648C5 30.1062 6.76621 31.5883 9.84514 32.7312C13.2131 33.9812 17.7073 34.6695 22.5 34.6695C27.2927 34.6695 31.7869 33.9812 35.1549 32.7312C38.2338 31.5883 40 30.1062 40 28.6648V22.432C39.0076 23.35 37.5602 24.175 35.7008 24.8648C32.1629 26.1781 27.4744 26.9015 22.5 26.9015ZM30.4961 30.514C30.486 30.5641 30.4711 30.613 30.4515 30.6601C30.4314 30.7081 30.4064 30.7539 30.3771 30.7969C30.3486 30.8395 30.3161 30.8792 30.28 30.9156C30.2435 30.9517 30.2037 30.9842 30.1609 31.0125C30.118 31.0405 30.0727 31.0646 30.0254 31.0844C29.9781 31.1039 29.9291 31.1188 29.8789 31.1289C29.7779 31.1497 29.6737 31.1497 29.5727 31.1289C29.5225 31.1188 29.4735 31.1039 29.4262 31.0844C29.3789 31.0646 29.3336 31.0405 29.2907 31.0125C29.1614 30.927 29.0607 30.805 29.0013 30.662C28.942 30.5191 28.9269 30.3617 28.9578 30.2101C28.9682 30.1602 28.9831 30.1113 29.0025 30.064C29.0221 30.017 29.0463 29.972 29.0745 29.9297C29.1028 29.8869 29.1353 29.8471 29.1717 29.8109C29.2083 29.7748 29.2481 29.7421 29.2907 29.7133C29.3336 29.6852 29.3789 29.6611 29.4262 29.6414C29.4735 29.6218 29.5225 29.6069 29.5727 29.5969C29.6738 29.5765 29.7779 29.5765 29.8789 29.5969C29.9291 29.6069 29.9781 29.6218 30.0254 29.6414C30.0727 29.6611 30.118 29.6852 30.1609 29.7133C30.2035 29.7421 30.2433 29.7748 30.28 29.8109C30.3543 29.8826 30.4139 29.968 30.4554 30.0625C30.4748 30.1097 30.4897 30.1586 30.5 30.2086C30.5103 30.26 30.5152 30.3124 30.5149 30.3648C30.5136 30.4151 30.5073 30.465 30.4961 30.514ZM33.9017 29.6656C33.8915 29.7158 33.8765 29.765 33.857 29.8125C33.8374 29.8595 33.8133 29.9045 33.785 29.9469C33.7565 29.9897 33.7237 30.0295 33.6871 30.0656C33.6507 30.1017 33.6111 30.1344 33.5688 30.1633C33.5257 30.1908 33.4804 30.2146 33.4333 30.2344C33.3862 30.2542 33.3371 30.2692 33.2868 30.2789C33.2353 30.2893 33.1828 30.2946 33.1302 30.2945C33.0789 30.2944 33.0277 30.2891 32.9774 30.2789C32.9272 30.2692 32.8781 30.2542 32.831 30.2344C32.7838 30.2147 32.7384 30.1909 32.6955 30.1633C32.6527 30.1346 32.6129 30.1019 32.5764 30.0656C32.5401 30.0294 32.5075 29.9896 32.4793 29.9469C32.451 29.9045 32.4269 29.8595 32.4072 29.8125C32.3878 29.765 32.3728 29.7158 32.3626 29.6656C32.3417 29.5651 32.3417 29.4614 32.3626 29.3609C32.3727 29.3109 32.3877 29.262 32.4072 29.2148C32.4267 29.1675 32.4508 29.1222 32.4793 29.0797C32.536 28.9939 32.6095 28.9206 32.6955 28.864C32.7382 28.8358 32.7836 28.8117 32.831 28.7922C32.8781 28.7723 32.9272 28.7574 32.9774 28.7476C33.0785 28.7273 33.1826 28.7273 33.2837 28.7476C33.3339 28.7574 33.383 28.7723 33.4302 28.7922C33.4774 28.8119 33.5228 28.836 33.5657 28.864C33.6082 28.8924 33.6478 28.9248 33.6839 28.9609C33.7205 28.9971 33.7534 29.0368 33.7818 29.0797C33.8103 29.1222 33.8344 29.1675 33.8539 29.2148C33.8735 29.262 33.8884 29.3109 33.8985 29.3609C33.9184 29.4615 33.9184 29.565 33.8985 29.6656H33.9017ZM35.9812 28.1125C36.0725 28.0225 36.1844 27.9561 36.3072 27.9189C36.43 27.8817 36.5601 27.875 36.6861 27.8992C36.7362 27.9095 36.7852 27.9244 36.8326 27.9437C36.8797 27.9633 36.9248 27.9874 36.9673 28.0156C37.0102 28.0437 37.0501 28.0762 37.0863 28.1125C37.2332 28.259 37.3157 28.4577 37.3157 28.6648C37.3157 28.872 37.2332 29.0707 37.0863 29.2172C37.0501 29.2537 37.0102 29.2864 36.9673 29.3148C36.9248 29.343 36.8797 29.3671 36.8326 29.3867C36.7852 29.406 36.7362 29.4209 36.6861 29.4312C36.6345 29.4414 36.582 29.4464 36.5295 29.4461C36.4782 29.4462 36.427 29.4412 36.3767 29.4312C36.3266 29.4211 36.2775 29.4062 36.2303 29.3867C36.1827 29.3665 36.1373 29.3417 36.0948 29.3125C36.0518 29.2841 36.0119 29.2513 35.9757 29.2148C35.8289 29.0683 35.7464 28.8696 35.7464 28.6625C35.7464 28.4553 35.8289 28.2566 35.9757 28.1101L35.9812 28.1125Z" fill="white"/>
</g>
<g filter="url(#filter2_d_185_3130)">
<path d="M22.5 17.5711C17.5256 17.5711 12.8371 16.8484 9.29844 15.5352C7.4398 14.8453 5.99237 14.0195 5 13.1016V19.3352C5 20.7758 6.76621 22.2578 9.84514 23.3977C13.2131 24.6477 17.7073 25.3359 22.5 25.3359C27.2927 25.3359 31.7869 24.6508 35.1549 23.4008C38.2338 22.2578 40 20.7758 40 19.3383V13.1016C39.0076 14.0195 37.5602 14.8453 35.7008 15.5352C32.1629 16.8484 27.4744 17.5711 22.5 17.5711ZM30.4961 21.1875C30.486 21.2375 30.4711 21.2864 30.4515 21.3336C30.432 21.3809 30.4079 21.4262 30.3794 21.4688C30.351 21.5114 30.3184 21.5511 30.2823 21.5875C30.2459 21.6236 30.206 21.6561 30.1633 21.6844C30.1204 21.7124 30.075 21.7365 30.0278 21.7562C29.9806 21.7761 29.9315 21.7911 29.8813 21.8008C29.7803 21.8216 29.6761 21.8216 29.575 21.8008C29.5248 21.7911 29.4757 21.7761 29.4286 21.7562C29.3813 21.7365 29.3359 21.7124 29.2931 21.6844C29.2503 21.6561 29.2104 21.6236 29.174 21.5875C29.1376 21.5513 29.1051 21.5115 29.0769 21.4688C29.0484 21.4262 29.0243 21.3809 29.0048 21.3336C28.9853 21.2864 28.9703 21.2375 28.9602 21.1875C28.9393 21.087 28.9393 20.9833 28.9602 20.8828C28.9703 20.8328 28.9853 20.7839 29.0048 20.7367C29.0243 20.6894 29.0484 20.6441 29.0769 20.6016C29.1051 20.5588 29.1376 20.519 29.174 20.4828C29.2104 20.4467 29.2503 20.4143 29.2931 20.3859C29.3359 20.3579 29.3813 20.3338 29.4286 20.3141C29.4757 20.2942 29.5248 20.2793 29.575 20.2695C29.6761 20.2492 29.7802 20.2492 29.8813 20.2695C29.9315 20.2793 29.9806 20.2942 30.0278 20.3141C30.075 20.3338 30.1204 20.3579 30.1633 20.3859C30.2706 20.4569 30.3586 20.5534 30.4193 20.6667C30.48 20.7801 30.5115 20.9067 30.511 21.0352C30.5111 21.0863 30.5062 21.1373 30.4961 21.1875ZM33.9017 20.3359C33.8914 20.3859 33.8765 20.4348 33.857 20.482C33.8374 20.529 33.8133 20.574 33.785 20.6164C33.7565 20.6592 33.7237 20.699 33.6871 20.7352C33.6509 20.7715 33.6113 20.8042 33.5688 20.8328C33.5259 20.8609 33.4806 20.8849 33.4333 20.9047C33.3383 20.9442 33.2363 20.9644 33.1333 20.9641C33.082 20.9642 33.0309 20.9592 32.9806 20.9492C32.9304 20.9391 32.8814 20.9242 32.8341 20.9047C32.7867 20.8851 32.7414 20.861 32.6986 20.8328C32.6129 20.7757 32.5394 20.7021 32.4824 20.6164C32.4541 20.574 32.43 20.529 32.4104 20.482C32.3909 20.4348 32.376 20.3859 32.3657 20.3359C32.3553 20.2845 32.35 20.2322 32.3501 20.1797C32.3502 20.1285 32.3554 20.0775 32.3657 20.0273C32.3758 19.9773 32.3908 19.9284 32.4104 19.8812C32.43 19.834 32.4541 19.7887 32.4824 19.7461C32.5391 19.6604 32.6127 19.587 32.6986 19.5305C32.7414 19.5022 32.7867 19.4782 32.8341 19.4586C32.8814 19.4391 32.9304 19.4241 32.9806 19.4141C33.0816 19.3938 33.1858 19.3938 33.2868 19.4141C33.337 19.4241 33.386 19.4391 33.4333 19.4586C33.4806 19.4783 33.5259 19.5024 33.5688 19.5305C33.6113 19.5588 33.6509 19.5913 33.6871 19.6273C33.7237 19.6635 33.7565 19.7033 33.785 19.7461C33.8134 19.7887 33.8376 19.8339 33.857 19.8812C33.8766 19.9284 33.8916 19.9773 33.9017 20.0273C33.9117 20.0775 33.9167 20.1285 33.9166 20.1797C33.9169 20.2321 33.9119 20.2845 33.9017 20.3359ZM35.7674 19.182C35.7875 19.0818 35.8271 18.9865 35.8841 18.9016C35.9397 18.8172 36.0112 18.7445 36.0948 18.6875C36.1374 18.6591 36.1828 18.635 36.2303 18.6156C36.2775 18.5961 36.3266 18.5812 36.3767 18.5711C36.4778 18.5508 36.5819 18.5508 36.683 18.5711C36.7331 18.5814 36.7821 18.5963 36.8294 18.6156C36.8765 18.6352 36.9217 18.6593 36.9642 18.6875C37.0071 18.7159 37.047 18.7486 37.0832 18.7852C37.156 18.8576 37.2137 18.9436 37.2532 19.0383C37.2728 19.0854 37.2877 19.1344 37.2978 19.1844C37.308 19.2358 37.313 19.2882 37.3127 19.3406C37.3122 19.5477 37.2297 19.7462 37.0832 19.893C37.047 19.9292 37.0071 19.9617 36.9642 19.9898C36.9217 20.0181 36.8765 20.0421 36.8294 20.0617C36.7821 20.081 36.7331 20.0959 36.683 20.1063C36.6314 20.1167 36.5789 20.1219 36.5263 20.1219C36.475 20.1217 36.4238 20.1165 36.3736 20.1063C36.3234 20.0962 36.2744 20.0813 36.2271 20.0617C36.1797 20.0423 36.1343 20.0182 36.0916 19.9898C36.0487 19.9617 36.0088 19.9292 35.9726 19.893C35.9364 19.8567 35.9038 19.8169 35.8754 19.7742C35.8473 19.7315 35.8232 19.6862 35.8034 19.6391C35.7838 19.5919 35.7688 19.543 35.7587 19.493C35.7482 19.4416 35.7429 19.3892 35.7431 19.3367C35.7447 19.2846 35.7515 19.2328 35.7634 19.182H35.7674Z" fill="white"/>
</g>
<g filter="url(#filter3_d_185_3130)">
<path d="M9.84514 14.0703C13.2131 15.3203 17.7073 16.0086 22.5 16.0086C27.2927 16.0086 31.7869 15.3203 35.1549 14.0703C38.2338 12.9273 40 11.4461 40 10.0078C40 8.56953 38.2338 7.08437 35.1549 5.94531C31.7869 4.68828 27.2927 4 22.5 4C17.7073 4 13.2131 4.68828 9.84514 5.93828C6.76621 7.08125 5 8.56328 5 10.0047C5 11.4461 6.76621 12.9273 9.84514 14.0703Z" fill="white"/>
</g>
<defs>
<filter id="filter0_d_185_3130" x="1" y="29.7625" width="43" height="20.2375" filterUnits="userSpaceOnUse" color-interpolation-filters="sRGB">
<feFlood flood-opacity="0" result="BackgroundImageFix"/>
<feColorMatrix in="SourceAlpha" type="matrix" values="0 0 0 0 0 0 0 0 0 0 0 0 0 0 0 0 0 0 127 0" result="hardAlpha"/>
<feOffset dy="2"/>
<feGaussianBlur stdDeviation="2"/>
<feComposite in2="hardAlpha" operator="out"/>
<feColorMatrix type="matrix" values="0 0 0 0 0 0 0 0 0 0 0 0 0 0 0 0 0 0 0.54 0"/>
<feBlend mode="normal" in2="BackgroundImageFix" result="effect1_dropShadow_185_3130"/>
<feBlend mode="normal" in="SourceGraphic" in2="effect1_dropShadow_185_3130" result="shape"/>
</filter>
<filter id="filter1_d_185_3130" x="1" y="20.432" width="43" height="20.2375" filterUnits="userSpaceOnUse" color-interpolation-filters="sRGB">
<feFlood flood-opacity="0" result="BackgroundImageFix"/>
<feColorMatrix in="SourceAlpha" type="matrix" values="0 0 0 0 0 0 0 0 0 0 0 0 0 0 0 0 0 0 127 0" result="hardAlpha"/>
<feOffset dy="2"/>
<feGaussianBlur stdDeviation="2"/>
<feComposite in2="hardAlpha" operator="out"/>
<feColorMatrix type="matrix" values="0 0 0 0 0 0 0 0 0 0 0 0 0 0 0 0 0 0 0.54 0"/>
<feBlend mode="normal" in2="BackgroundImageFix" result="effect1_dropShadow_185_3130"/>
<feBlend mode="normal" in="SourceGraphic" in2="effect1_dropShadow_185_3130" result="shape"/>
</filter>
<filter id="filter2_d_185_3130" x="1" y="11.1016" width="43" height="20.2344" filterUnits="userSpaceOnUse" color-interpolation-filters="sRGB">
<feFlood flood-opacity="0" result="BackgroundImageFix"/>
<feColorMatrix in="SourceAlpha" type="matrix" values="0 0 0 0 0 0 0 0 0 0 0 0 0 0 0 0 0 0 127 0" result="hardAlpha"/>
<feOffset dy="2"/>
<feGaussianBlur stdDeviation="2"/>
<feComposite in2="hardAlpha" operator="out"/>
<feColorMatrix type="matrix" values="0 0 0 0 0 0 0 0 0 0 0 0 0 0 0 0 0 0 0.54 0"/>
<feBlend mode="normal" in2="BackgroundImageFix" result="effect1_dropShadow_185_3130"/>
<feBlend mode="normal" in="SourceGraphic" in2="effect1_dropShadow_185_3130" result="shape"/>
</filter>
<filter id="filter3_d_185_3130" x="1" y="2" width="43" height="20.0085" filterUnits="userSpaceOnUse" color-interpolation-filters="sRGB">
<feFlood flood-opacity="0" result="BackgroundImageFix"/>
<feColorMatrix in="SourceAlpha" type="matrix" values="0 0 0 0 0 0 0 0 0 0 0 0 0 0 0 0 0 0 127 0" result="hardAlpha"/>
<feOffset dy="2"/>
<feGaussianBlur stdDeviation="2"/>
<feComposite in2="hardAlpha" operator="out"/>
<feColorMatrix type="matrix" values="0 0 0 0 0 0 0 0 0 0 0 0 0 0 0 0 0 0 0.54 0"/>
<feBlend mode="normal" in2="BackgroundImageFix" result="effect1_dropShadow_185_3130"/>
<feBlend mode="normal" in="SourceGraphic" in2="effect1_dropShadow_185_3130" result="shape"/>
</filter>
</defs>
</svg>
