<svg width="32" height="32" viewBox="0 0 32 32" fill="none" xmlns="http://www.w3.org/2000/svg">
<path opacity="0.3" d="M19.7791 19.1431L30.3391 23.0009C30.7835 23.1627 30.7711 23.7973 30.3195 23.9413L25.4857 25.488L23.9391 30.3218C23.7951 30.7733 23.1604 30.7858 22.9986 30.3413L19.1409 19.7813C18.9951 19.3849 19.3809 18.9991 19.7791 19.1431Z" fill="#FF3800"/>
<path opacity="0.3" fill-rule="evenodd" clip-rule="evenodd" d="M17.9766 28.5691C17.0219 28.7949 16.1355 28.8891 15.1115 28.8891C7.99332 28.8891 2.22266 23.1184 2.22266 16.0002C2.22266 8.88199 7.99332 3.11133 15.1115 3.11133C22.2298 3.11133 28.0004 8.88199 28.0004 16.0002C28.0004 16.6242 28.0049 16.8527 27.9195 17.4536L27.5099 17.7085L21.1524 15.3869L21.14 15.3816C17.5791 14.0945 14.0609 17.5398 15.3853 21.1576L15.3871 21.1611L18.0029 28.3225L17.9766 28.5691Z" fill="#FF3800"/>
<path d="M16.754 28.7856C16.2161 28.8539 15.6678 28.8891 15.1115 28.8891C7.99332 28.8891 2.22266 23.1184 2.22266 16.0002C2.22266 8.88199 7.99332 3.11133 15.1115 3.11133C22.2298 3.11133 28.0004 8.88199 28.0004 16.0002C28.0004 16.156 27.9978 16.311 27.9923 16.4653" stroke="#FF3800" stroke-width="1.5" stroke-linecap="round" stroke-linejoin="round"/>
<path d="M19.7791 19.1431L30.3391 23.0009C30.7835 23.1627 30.7711 23.7973 30.3195 23.9413L25.4857 25.488L23.9391 30.3218C23.7951 30.7733 23.1604 30.7858 22.9986 30.3413L19.1409 19.7813C18.9951 19.3849 19.3809 18.9991 19.7791 19.1431Z" stroke="#FF3800" stroke-width="1.5" stroke-linecap="round" stroke-linejoin="round"/>
<path d="M28.0004 15.9993C28.0004 13.0536 22.2298 10.666 15.1115 10.666C7.99332 10.666 2.22266 13.0536 2.22266 15.9993C2.22266 18.7936 7.41823 21.087 14.0323 21.3144" stroke="#FF3800" stroke-width="1.5" stroke-linecap="round" stroke-linejoin="round"/>
<path d="M20.3693 13.8361C19.9434 7.74868 17.7509 3.11133 15.1107 3.11133C12.1649 3.11133 9.77734 8.88199 9.77734 16.0002C9.77734 23.1184 12.1649 28.8891 15.1107 28.8891" stroke="#FF3800" stroke-width="1.5" stroke-linecap="round" stroke-linejoin="round"/>
</svg>
