<svg width="30" height="30" viewBox="0 0 30 30" fill="none" xmlns="http://www.w3.org/2000/svg">
<path fill-rule="evenodd" clip-rule="evenodd" d="M1.66602 14.9993C1.66602 7.63551 7.6355 1.66602 14.9993 1.66602C22.3632 1.66602 28.3327 7.63551 28.3327 14.9993C28.3327 22.3632 22.3632 28.3327 14.9993 28.3327C7.6355 28.3327 1.66602 22.3632 1.66602 14.9993Z" fill="#FFBBA8"/>
<path d="M22.5543 5.98602C22.2826 6.19769 21.9326 6.29269 21.5926 6.23769C19.7359 5.94602 18.4093 6.10436 17.9576 6.66936C17.5909 7.12602 17.6759 8.05269 17.7509 8.86936C17.8543 10.001 17.9826 11.4077 16.8059 12.1577C15.7562 12.8242 14.6698 12.2912 13.8748 11.9013C13.1648 11.5529 12.4893 11.2227 11.7926 11.416C10.9126 11.6593 10.4293 12.5643 10.341 12.7427C9.9343 13.5677 10.0926 14.4377 10.3043 15.036C12.4443 14.6143 14.2676 14.8343 15.736 15.6943C16.454 16.1156 17.0268 16.6903 17.5559 17.3243C17.9709 17.8227 18.0943 17.9443 18.3559 17.9927C18.8109 18.0843 19.2609 17.786 19.9543 17.3043C20.9104 16.6373 21.9379 16.0448 23.1509 16.2743C24.4343 16.5177 25.4543 17.541 26.2593 19.3627C26.5604 19.9395 26.7656 20.4988 26.8856 21.0403C24.6784 25.3645 20.1796 28.3327 15.001 28.3327C14.2264 28.3327 13.467 28.2663 12.7282 28.1388C12.9263 27.4392 13.1227 26.7448 13.1326 26.7093C13.2543 26.2827 13.4876 25.2127 13.0226 24.516C12.8626 24.2743 12.6893 24.176 12.3126 23.9777C11.6253 23.6157 11.0304 23.1733 10.6226 22.496C10.1695 21.7438 10.0901 20.9412 10.136 20.0843C10.161 19.646 10.1793 19.2993 10.0226 18.8627C9.80764 18.266 9.38264 17.8643 8.89264 17.4977C8.62487 17.2682 8.31194 17.0818 8.0243 16.8777C6.21264 15.5543 4.74597 13.5577 3.6093 11.001C3.30652 10.397 3.0971 9.81414 2.9707 9.25294C5.12109 4.76947 9.70565 1.66602 15.001 1.66602C18.3644 1.66602 21.4411 2.91806 23.7894 4.98049L22.5543 5.98602Z" fill="#FF3800"/>
</svg>
