<svg width="300" height="300" viewBox="0 0 300 300" fill="none" xmlns="http://www.w3.org/2000/svg">
<path d="M104.6 227.5C104.5 236.6 91.7001 243.9 76 243.7C60.3 243.6 47.6 236.1 47.7 227C47.7 224.8 47.8001 217.7 47.9001 217.2C49.4001 210 64.5001 210.6 76.3001 210.7C88.1001 210.8 99.3001 211.7 104.4 216.9C104.6 217.1 104.6 225.2 104.6 227.5Z" fill="black" stroke="black" stroke-width="2" stroke-miterlimit="10" stroke-linecap="round" stroke-linejoin="round"/>
<path d="M104.683 218.609C104.768 209.496 92.0764 201.99 76.3362 201.845C60.5961 201.699 47.7678 208.968 47.6834 218.081C47.599 227.193 60.2904 234.699 76.0305 234.845C91.7706 234.99 104.599 227.721 104.683 218.609Z" fill="white" stroke="black" stroke-width="2" stroke-miterlimit="10" stroke-linecap="round" stroke-linejoin="round"/>
<path d="M143.099 205.9L192.299 175.9L272.699 213.9L147.199 292.7L102.599 271.8" stroke="black" stroke-width="2" stroke-miterlimit="10" stroke-linecap="round" stroke-linejoin="round" stroke-dasharray="6 6"/>
<path d="M128.9 208.8C128.9 209.9 129.3 212.8 132.5 214.9C137.7 218.2 146.1 215.5 146.3 208.9L128.9 208.8Z" fill="#06071A"/>
<path d="M113.3 192.5C113.3 195.7 114.4 203.7 123.4 209.4C137.9 218.5 161.5 211 162 192.6L113.3 192.5Z" fill="#06071A"/>
<path d="M165.314 189.828C165.338 180.992 153.001 173.794 137.758 173.752C122.515 173.71 110.138 180.839 110.114 189.675C110.089 198.512 122.426 205.71 137.669 205.752C152.912 205.794 165.289 198.665 165.314 189.828Z" fill="white" stroke="black" stroke-width="2" stroke-miterlimit="10" stroke-linecap="round" stroke-linejoin="round"/>
<path d="M157.7 172C147.2 165.6 129.7 165.3 118.7 171.4C107.7 177.5 107.3 187.6 117.8 194C128.3 200.4 145.8 200.7 156.8 194.6C167.7 188.5 168.2 178.4 157.7 172Z" fill="white" stroke="black" stroke-width="2" stroke-miterlimit="10" stroke-linecap="round" stroke-linejoin="round"/>
<path d="M165.354 176.263C165.378 167.427 153.041 160.229 137.798 160.187C122.555 160.145 110.178 167.274 110.154 176.11C110.129 184.947 122.466 192.145 137.709 192.187C152.952 192.229 165.329 185.1 165.354 176.263Z" fill="white" stroke="black" stroke-width="2" stroke-miterlimit="10" stroke-linecap="round" stroke-linejoin="round"/>
<path d="M173.1 144.8L102.5 144.6V156.8C102.5 157.1 102.5 157.5 102.5 157.8C102.9 164.2 106.6 169.6 113.5 173.9C123.4 180.1 139.1 181.8 151.9 178.2C159.1 176.1 171 171 172.8 159.2C172.9 158.4 173 157.7 173 156.9L173.1 144.8Z" fill="white" stroke="black" stroke-width="2" stroke-miterlimit="10" stroke-linecap="round" stroke-linejoin="round"/>
<path d="M173.059 144.854C173.09 133.587 157.311 124.41 137.815 124.356C118.32 124.302 102.49 133.391 102.459 144.658C102.428 155.925 118.207 165.102 137.702 165.156C157.198 165.21 173.028 156.12 173.059 144.854Z" fill="white" stroke="black" stroke-width="2" stroke-miterlimit="10" stroke-linecap="round" stroke-linejoin="round"/>
<path d="M200.8 61.5C198.6 42.2 188.6 26.5 170.8 14.9C167.7 13 158.3 7.40001 144.3 5.90001C113.3 2.60001 89.3999 21.9 80.3999 41.2C68.6999 66.2 72.8999 91.3 92.7999 115.7L93.0999 116.1C99.1999 123.9 102.8 133.8 103.6 145.6C103.7 148.3 104.8 151 106.9 153.5C108.4 155.3 110.4 157 112.9 158.6C125.8 166.5 147.2 166.8 160.8 159.4C163.8 157.7 166.2 155.8 167.9 153.8C170 151.3 171.1 148.6 171.3 145.8C172.2 134 175.8 124.1 182.1 116.3C182.1 116.2 182.3 116 182.3 116C192.3 103.6 203.5 86.4 200.8 61.5Z" fill="url(#paint0_linear_4_1142)" stroke="black" stroke-width="2" stroke-miterlimit="10" stroke-linecap="round" stroke-linejoin="round"/>
<path d="M159.8 134.2C171.7 141.5 171.3 153 158.7 159.9C146.1 166.8 126.3 166.5 114.4 159.2C102.5 151.9 102.9 140.4 115.5 133.5C128 126.6 147.8 126.9 159.8 134.2Z" fill="#06071A"/>
<path d="M158.1 61.1C157.4 60.7 156.6 60.9 156.1 61.5L155.6 62.3C155.4 62.3 155.3 62.3 155.1 62.3C154.3 62.4 153.9 63 153.8 63.2C153.5 63.6 153.3 63.9 153 64.3C152.6 64.9 152.2 65.5 151.6 65.9C151 66.4 150.3 66.2 149.7 66.1C149 65.9 147.9 66 147.2 66.7C146.7 67.2 146.3 67.7 146 68.2C145.7 68.6 145.4 69.1 145 69.5C144.5 70.1 143.6 70.3 143.1 70.2C143 70.2 142.9 70.2 142.8 70.1C142.2 69.9 141.4 69.7 140.6 70.2C139.9 70.7 139.4 71.3 138.9 72.1C138.7 72.4 138.5 72.7 138.3 73C138.1 73.3 137.7 73.8 137.3 74C136.9 74.2 136.6 74.2 136.4 74.2C136.1 74.2 135.9 74.1 135.7 74C135.3 73.9 134.8 73.7 134.1 73.9C133.3 74.2 132.5 75.2 131.8 76.3C131.1 77.3 130.2 78.1 129.8 78.2C129.4 78.3 129.1 78.2 128.7 78.1C128.4 78 128 77.9 127.6 77.9C126.9 77.9 125.8 78.9 125.2 79.8L124.9 80.2C124.3 81.1 123.7 81.9 123.1 82.2C122.6 82.5 122.2 82.3 121.7 82.2C121.5 82.1 121.3 82.1 121.1 82C120.6 81.9 120.2 82 119.8 82.2C119.3 82.4 118.9 82.9 118.6 83.2C117.9 83 117.2 83.3 116.9 84C116.6 84.7 116.9 85.6 117.6 85.9L131.4 91.8L131.1 147.7C131.1 148.6 131.7 149.4 132.8 150.1C135.1 151.5 138.9 151.5 141.2 150.1C142.4 149.4 143 148.5 143 147.6L143.3 88C143.3 87.6 143.2 87.2 142.9 86.8L158.1 63.1C159 62.4 158.8 61.5 158.1 61.1ZM141.1 85.1C138.8 84.2 135.6 84.3 133.6 85.5C132.3 86.2 131.8 87.2 131.9 88.1C131.9 88 131.9 88 131.9 87.9V88.6L119.6 83.3C119.9 83 120.2 82.7 120.5 82.6C120.8 82.5 121.1 82.4 121.4 82.5C121.6 82.5 121.8 82.6 122 82.7C122.5 82.9 123 83 123.8 82.7C124.5 82.4 125.2 81.5 125.8 80.5L126.1 80.1C126.8 79.2 127.7 78.5 128.1 78.5C128.4 78.5 128.7 78.6 129 78.7C129.4 78.8 129.8 78.9 130.3 78.9C131 78.8 132.1 77.7 132.7 76.8C133.1 76.3 134.1 74.9 134.8 74.6C135.3 74.4 135.6 74.5 136 74.7C136.2 74.8 136.5 74.9 136.8 74.9C137.2 74.9 137.7 74.8 138.1 74.6C138.5 74.4 138.8 74 139.3 73.4C139.5 73.1 139.7 72.8 139.9 72.5C140.4 71.8 140.8 71.2 141.4 70.8C142 70.4 142.5 70.6 143.1 70.7C143.2 70.7 143.3 70.7 143.4 70.8C144.2 71 145.2 70.6 145.9 69.9C146.3 69.4 146.6 69 146.9 68.5C147.3 68 147.6 67.5 148.1 67C148.6 66.5 149.5 66.4 150 66.5C150.7 66.7 151.7 66.9 152.4 66.2C153 65.7 153.4 65.1 153.9 64.4C154.1 64.1 154.4 63.7 154.7 63.3C154.7 63.3 155 62.7 155.6 62.7C155.4 62.8 141.1 85.1 141.1 85.1Z" fill="white" stroke="black" stroke-width="2" stroke-miterlimit="10" stroke-linecap="round" stroke-linejoin="round"/>
<path d="M76.1999 243.7C76.0999 252.8 63.2999 260.1 47.5999 259.9C31.8999 259.7 19.1999 252.3 19.2999 243.2C19.2999 241 19.3999 233.9 19.4999 233.4C20.9999 226.2 36.0999 226.8 47.8999 226.9C59.6999 227 70.8999 227.9 75.9999 233.1C76.0999 233.3 76.1999 241.4 76.1999 243.7Z" fill="black" stroke="black" stroke-width="2" stroke-miterlimit="10" stroke-linecap="round" stroke-linejoin="round"/>
<path d="M76.2954 234.783C76.3799 225.671 63.6884 218.165 47.9483 218.019C32.2082 217.874 19.3799 225.143 19.2954 234.255C19.211 243.368 31.9025 250.874 47.6426 251.019C63.3827 251.165 76.211 243.896 76.2954 234.783Z" fill="white" stroke="black" stroke-width="2" stroke-miterlimit="10" stroke-linecap="round" stroke-linejoin="round"/>
<path d="M79.1999 227.2C79.0999 236.3 66.2999 243.6 50.5999 243.4C34.8999 243.3 22.1999 235.8 22.2999 226.7C22.2999 224.5 22.3999 217.4 22.4999 216.9C23.9999 209.7 39.0999 210.3 50.8999 210.4C62.6999 210.5 73.8999 211.4 78.9999 216.6C79.0999 216.9 79.1999 225 79.1999 227.2Z" fill="black" stroke="black" stroke-width="2" stroke-miterlimit="10" stroke-linecap="round" stroke-linejoin="round"/>
<path d="M79.2493 218.328C79.3337 209.216 66.6423 201.71 50.9022 201.564C35.1621 201.419 22.3337 208.688 22.2493 217.8C22.1649 226.913 34.8563 234.419 50.5964 234.564C66.3366 234.71 79.1649 227.441 79.2493 218.328Z" fill="white" stroke="black" stroke-width="2" stroke-miterlimit="10" stroke-linecap="round" stroke-linejoin="round"/>
<mask id="mask0_4_1142" style="mask-type:alpha" maskUnits="userSpaceOnUse" x="13" y="144" width="92" height="110">
<path d="M47.4746 149.599C48.8739 150.138 50.4438 149.444 50.981 148.048C51.5182 146.653 50.8193 145.085 49.42 144.547C48.0206 144.008 46.4507 144.702 45.9135 146.097C45.3763 147.492 46.0752 149.06 47.4746 149.599Z" fill="#060606"/>
<path d="M29.9659 195.072C31.3653 195.611 32.9352 194.916 33.4724 193.521C34.0096 192.126 33.3107 190.558 31.9113 190.019C30.512 189.48 28.9421 190.175 28.4049 191.57C27.8677 192.965 28.5666 194.533 29.9659 195.072Z" fill="#060606"/>
<path d="M77.8795 161.306C79.2789 161.845 80.8488 161.151 81.386 159.755C81.9232 158.36 81.2243 156.792 79.8249 156.254C78.4256 155.715 76.8557 156.409 76.3185 157.804C75.7813 159.199 76.4802 160.767 77.8795 161.306Z" fill="#060606"/>
<path d="M60.3709 206.779C61.7702 207.318 63.3401 206.623 63.8773 205.228C64.4145 203.833 63.7156 202.265 62.3163 201.726C60.9169 201.187 59.3471 201.882 58.8098 203.277C58.2726 204.672 58.9715 206.24 60.3709 206.779Z" fill="#060606"/>
<path d="M62.677 155.453C64.0764 155.991 65.6463 155.297 66.1835 153.902C66.7207 152.507 66.0218 150.939 64.6224 150.4C63.2231 149.861 61.6532 150.556 61.116 151.951C60.5788 153.346 61.2777 154.914 62.677 155.453Z" fill="#060606"/>
<path d="M45.1684 200.925C46.5678 201.464 48.1377 200.77 48.6749 199.375C49.2121 197.979 48.5132 196.412 47.1138 195.873C45.7145 195.334 44.1446 196.028 43.6074 197.423C43.0702 198.819 43.7691 200.386 45.1684 200.925Z" fill="#060606"/>
<path d="M93.082 167.16C94.4813 167.698 96.0512 167.004 96.5884 165.609C97.1256 164.214 96.4267 162.646 95.0274 162.107C93.628 161.568 92.0582 162.263 91.5209 163.658C90.9837 165.053 91.6826 166.621 93.082 167.16Z" fill="#060606"/>
<path d="M75.5734 212.632C76.9727 213.171 78.5426 212.477 79.0798 211.082C79.617 209.686 78.9181 208.119 77.5188 207.58C76.1194 207.041 74.5495 207.735 74.0123 209.13C73.4751 210.526 74.174 212.093 75.5734 212.632Z" fill="#060606"/>
<path d="M55.0758 152.526C56.4752 153.065 58.045 152.37 58.5823 150.975C59.1195 149.58 58.4206 148.012 57.0212 147.473C55.6219 146.935 54.052 147.629 53.5148 149.024C52.9776 150.419 53.6765 151.987 55.0758 152.526Z" fill="#060606"/>
<path d="M37.5672 197.998C38.9665 198.537 40.5364 197.843 41.0736 196.448C41.6108 195.053 40.9119 193.485 39.5126 192.946C38.1132 192.407 36.5433 193.101 36.0061 194.497C35.4689 195.892 36.1678 197.46 37.5672 197.998Z" fill="#060606"/>
<path d="M85.4808 164.233C86.8801 164.772 88.45 164.077 88.9872 162.682C89.5244 161.287 88.8255 159.719 87.4262 159.18C86.0268 158.642 84.4569 159.336 83.9197 160.731C83.3825 162.126 84.0814 163.694 85.4808 164.233Z" fill="#060606"/>
<path d="M67.9721 209.705C69.3715 210.244 70.9414 209.55 71.4786 208.155C72.0158 206.76 71.3169 205.192 69.9175 204.653C68.5182 204.114 66.9483 204.808 66.4111 206.204C65.8739 207.599 66.5728 209.167 67.9721 209.705Z" fill="#060606"/>
<path d="M70.2783 158.379C71.6776 158.918 73.2475 158.224 73.7847 156.829C74.3219 155.433 73.623 153.866 72.2237 153.327C70.8243 152.788 69.2544 153.482 68.7172 154.878C68.18 156.273 68.8789 157.841 70.2783 158.379Z" fill="#060606"/>
<path d="M52.7696 203.852C54.169 204.391 55.7389 203.697 56.2761 202.301C56.8133 200.906 56.1144 199.338 54.7151 198.799C53.3157 198.261 51.7458 198.955 51.2086 200.35C50.6714 201.745 51.3703 203.313 52.7696 203.852Z" fill="#060606"/>
<path d="M100.683 170.086C102.083 170.625 103.652 169.931 104.19 168.536C104.727 167.14 104.028 165.573 102.629 165.034C101.229 164.495 99.6594 165.189 99.1222 166.585C98.585 167.98 99.2839 169.548 100.683 170.086Z" fill="#060606"/>
<path d="M83.1746 215.559C84.5739 216.098 86.1438 215.404 86.681 214.008C87.2182 212.613 86.5193 211.045 85.12 210.506C83.7206 209.968 82.1508 210.662 81.6135 212.057C81.0763 213.452 81.7752 215.02 83.1746 215.559Z" fill="#060606"/>
<path d="M41.6384 164.757C43.0377 165.295 44.6076 164.601 45.1448 163.206C45.682 161.811 44.9831 160.243 43.5838 159.704C42.1844 159.165 40.6145 159.86 40.0773 161.255C39.5401 162.65 40.239 164.218 41.6384 164.757Z" fill="#060606"/>
<path d="M24.1297 210.229C25.5291 210.768 27.099 210.074 27.6362 208.679C28.1734 207.283 27.4745 205.716 26.0751 205.177C24.6758 204.638 23.1059 205.332 22.5687 206.727C22.0315 208.123 22.7304 209.69 24.1297 210.229Z" fill="#060606"/>
<path d="M72.0433 176.464C73.4427 177.002 75.0125 176.308 75.5498 174.913C76.087 173.518 75.3881 171.95 73.9887 171.411C72.5894 170.872 71.0195 171.567 70.4823 172.962C69.9451 174.357 70.644 175.925 72.0433 176.464Z" fill="#060606"/>
<path d="M54.5347 221.936C55.934 222.475 57.5039 221.781 58.0411 220.386C58.5783 218.99 57.8794 217.423 56.4801 216.884C55.0807 216.345 53.5108 217.039 52.9736 218.434C52.4364 219.83 53.1353 221.397 54.5347 221.936Z" fill="#060606"/>
<path d="M56.8408 170.61C58.2402 171.149 59.8101 170.455 60.3473 169.059C60.8845 167.664 60.1856 166.096 58.7862 165.558C57.3869 165.019 55.817 165.713 55.2798 167.108C54.7426 168.504 55.4415 170.071 56.8408 170.61Z" fill="#060606"/>
<path d="M39.3322 216.083C40.7316 216.622 42.3014 215.927 42.8386 214.532C43.3759 213.137 42.677 211.569 41.2776 211.03C39.8783 210.491 38.3084 211.186 37.7712 212.581C37.234 213.976 37.9329 215.544 39.3322 216.083Z" fill="#060606"/>
<path d="M87.2458 182.317C88.6451 182.856 90.215 182.162 90.7522 180.766C91.2894 179.371 90.5905 177.803 89.1912 177.265C87.7918 176.726 86.2219 177.42 85.6847 178.815C85.1475 180.211 85.8464 181.778 87.2458 182.317Z" fill="#060606"/>
<path d="M69.7371 227.79C71.1365 228.329 72.7064 227.634 73.2436 226.239C73.7808 224.844 73.0819 223.276 71.6826 222.737C70.2832 222.198 68.7133 222.893 68.1761 224.288C67.6389 225.683 68.3378 227.251 69.7371 227.79Z" fill="#060606"/>
<path d="M49.2396 167.683C50.6389 168.222 52.2088 167.528 52.746 166.133C53.2833 164.737 52.5844 163.17 51.185 162.631C49.7857 162.092 48.2158 162.786 47.6786 164.182C47.1413 165.577 47.8402 167.145 49.2396 167.683Z" fill="#060606"/>
<path d="M31.731 213.156C33.1303 213.695 34.7002 213.001 35.2374 211.605C35.7746 210.21 35.0757 208.642 33.6764 208.103C32.277 207.565 30.7071 208.259 30.1699 209.654C29.6327 211.049 30.3316 212.617 31.731 213.156Z" fill="#060606"/>
<path d="M79.6445 179.39C81.0439 179.929 82.6138 179.235 83.151 177.84C83.6882 176.445 82.9893 174.877 81.5899 174.338C80.1906 173.799 78.6207 174.493 78.0835 175.889C77.5463 177.284 78.2452 178.852 79.6445 179.39Z" fill="#060606"/>
<path d="M62.1359 224.863C63.5353 225.402 65.1052 224.708 65.6424 223.312C66.1796 221.917 65.4807 220.349 64.0813 219.811C62.682 219.272 61.1121 219.966 60.5749 221.361C60.0377 222.756 60.7366 224.324 62.1359 224.863Z" fill="#060606"/>
<path d="M64.4421 173.537C65.8414 174.076 67.4113 173.381 67.9485 171.986C68.4857 170.591 67.7868 169.023 66.3875 168.484C64.9881 167.946 63.4182 168.64 62.881 170.035C62.3438 171.43 63.0427 172.998 64.4421 173.537Z" fill="#060606"/>
<path d="M46.9334 219.01C48.3328 219.548 49.9027 218.854 50.4399 217.459C50.9771 216.064 50.2782 214.496 48.8788 213.957C47.4795 213.418 45.9096 214.112 45.3724 215.508C44.8352 216.903 45.5341 218.471 46.9334 219.01Z" fill="#060606"/>
<path d="M94.847 185.244C96.2464 185.783 97.8163 185.088 98.3535 183.693C98.8907 182.298 98.1918 180.73 96.7924 180.191C95.3931 179.653 93.8232 180.347 93.286 181.742C92.7488 183.137 93.4477 184.705 94.847 185.244Z" fill="#060606"/>
<path d="M77.3384 230.717C78.7377 231.255 80.3076 230.561 80.8448 229.166C81.382 227.771 80.6831 226.203 79.2838 225.664C77.8844 225.125 76.3145 225.819 75.7773 227.215C75.2401 228.61 75.939 230.178 77.3384 230.717Z" fill="#060606"/>
<path d="M35.8022 179.914C37.2015 180.453 38.7714 179.759 39.3086 178.363C39.8458 176.968 39.1469 175.4 37.7476 174.862C36.3482 174.323 34.7783 175.017 34.2411 176.412C33.7039 177.808 34.4028 179.375 35.8022 179.914Z" fill="#060606"/>
<path d="M18.2935 225.387C19.6929 225.926 21.2628 225.231 21.8 223.836C22.3372 222.441 21.6383 220.873 20.2389 220.334C18.8396 219.795 17.2697 220.49 16.7325 221.885C16.1953 223.28 16.8942 224.848 18.2935 225.387Z" fill="#060606"/>
<path d="M66.2071 191.621C67.6064 192.16 69.1763 191.466 69.7135 190.071C70.2508 188.675 69.5518 187.107 68.1525 186.569C66.7532 186.03 65.1833 186.724 64.6461 188.119C64.1088 189.515 64.8077 191.082 66.2071 191.621Z" fill="#060606"/>
<path d="M48.6985 237.094C50.0978 237.633 51.6677 236.938 52.2049 235.543C52.7421 234.148 52.0432 232.58 50.6439 232.041C49.2445 231.502 47.6746 232.197 47.1374 233.592C46.6002 234.987 47.2991 236.555 48.6985 237.094Z" fill="#060606"/>
<path d="M51.0046 185.768C52.404 186.306 53.9739 185.612 54.5111 184.217C55.0483 182.822 54.3494 181.254 52.95 180.715C51.5507 180.176 49.9808 180.871 49.4436 182.266C48.9064 183.661 49.6053 185.229 51.0046 185.768Z" fill="#060606"/>
<path d="M33.496 231.24C34.8953 231.779 36.4652 231.085 37.0024 229.69C37.5396 228.294 36.8407 226.727 35.4414 226.188C34.042 225.649 32.4722 226.343 31.9349 227.738C31.3977 229.134 32.0966 230.701 33.496 231.24Z" fill="#060606"/>
<path d="M81.4096 197.475C82.8089 198.013 84.3788 197.319 84.916 195.924C85.4532 194.529 84.7543 192.961 83.355 192.422C81.9556 191.883 80.3857 192.578 79.8485 193.973C79.3113 195.368 80.0102 196.936 81.4096 197.475Z" fill="#060606"/>
<path d="M63.9009 242.947C65.3003 243.486 66.8702 242.792 67.4074 241.397C67.9446 240.001 67.2457 238.434 65.8463 237.895C64.447 237.356 62.8771 238.05 62.3399 239.445C61.8027 240.841 62.5016 242.409 63.9009 242.947Z" fill="#060606"/>
<path d="M43.4034 182.841C44.8027 183.38 46.3726 182.685 46.9098 181.29C47.447 179.895 46.7481 178.327 45.3488 177.788C43.9494 177.25 42.3796 177.944 41.8423 179.339C41.3051 180.734 42.004 182.302 43.4034 182.841Z" fill="#060606"/>
<path d="M25.8948 228.314C27.2941 228.852 28.864 228.158 29.4012 226.763C29.9384 225.368 29.2395 223.8 27.8402 223.261C26.4408 222.722 24.8709 223.416 24.3337 224.812C23.7965 226.207 24.4954 227.775 25.8948 228.314Z" fill="#060606"/>
<path d="M73.8083 194.548C75.2077 195.087 76.7776 194.392 77.3148 192.997C77.852 191.602 77.1531 190.034 75.7537 189.495C74.3544 188.957 72.7845 189.651 72.2473 191.046C71.7101 192.441 72.409 194.009 73.8083 194.548Z" fill="#060606"/>
<path d="M56.2997 240.021C57.699 240.559 59.2689 239.865 59.8061 238.47C60.3434 237.075 59.6445 235.507 58.2451 234.968C56.8458 234.429 55.2759 235.124 54.7387 236.519C54.2014 237.914 54.9003 239.482 56.2997 240.021Z" fill="#060606"/>
<path d="M58.6059 188.694C60.0052 189.233 61.5751 188.539 62.1123 187.144C62.6495 185.749 61.9506 184.181 60.5513 183.642C59.1519 183.103 57.582 183.797 57.0448 185.193C56.5076 186.588 57.2065 188.156 58.6059 188.694Z" fill="#060606"/>
<path d="M41.0972 234.167C42.4966 234.706 44.0665 234.012 44.6037 232.616C45.1409 231.221 44.442 229.653 43.0426 229.115C41.6433 228.576 40.0734 229.27 39.5362 230.665C38.999 232.06 39.6979 233.628 41.0972 234.167Z" fill="#060606"/>
<path d="M89.0108 200.401C90.4102 200.94 91.98 200.246 92.5172 198.851C93.0545 197.456 92.3556 195.888 90.9562 195.349C89.5569 194.81 87.987 195.504 87.4498 196.9C86.9126 198.295 87.6115 199.863 89.0108 200.401Z" fill="#060606"/>
<path d="M71.5022 245.874C72.9015 246.413 74.4714 245.719 75.0086 244.323C75.5458 242.928 74.8469 241.36 73.4476 240.822C72.0482 240.283 70.4783 240.977 69.9411 242.372C69.4039 243.767 70.1028 245.335 71.5022 245.874Z" fill="#060606"/>
<path d="M44.5565 157.178C45.9558 157.717 47.5257 157.022 48.0629 155.627C48.6001 154.232 47.9012 152.664 46.5019 152.125C45.1025 151.587 43.5326 152.281 42.9954 153.676C42.4582 155.071 43.1571 156.639 44.5565 157.178Z" fill="#060606"/>
<path d="M27.0478 202.65C28.4472 203.189 30.0171 202.495 30.5543 201.1C31.0915 199.705 30.3926 198.137 28.9932 197.598C27.5939 197.059 26.024 197.753 25.4868 199.149C24.9496 200.544 25.6485 202.112 27.0478 202.65Z" fill="#060606"/>
<path d="M74.9614 168.885C76.3608 169.424 77.9307 168.729 78.4679 167.334C79.0051 165.939 78.3062 164.371 76.9068 163.832C75.5075 163.294 73.9376 163.988 73.4004 165.383C72.8632 166.778 73.5621 168.346 74.9614 168.885Z" fill="#060606"/>
<path d="M57.4528 214.357C58.8521 214.896 60.422 214.202 60.9592 212.807C61.4964 211.412 60.7975 209.844 59.3982 209.305C57.9988 208.766 56.4289 209.46 55.8917 210.856C55.3545 212.251 56.0534 213.819 57.4528 214.357Z" fill="#060606"/>
<path d="M59.7589 163.031C61.1583 163.57 62.7282 162.876 63.2654 161.481C63.8026 160.085 63.1037 158.518 61.7043 157.979C60.305 157.44 58.7351 158.134 58.1979 159.53C57.6607 160.925 58.3596 162.493 59.7589 163.031Z" fill="#060606"/>
<path d="M42.2503 208.504C43.6497 209.043 45.2195 208.349 45.7568 206.953C46.294 205.558 45.5951 203.99 44.1957 203.451C42.7964 202.913 41.2265 203.607 40.6893 205.002C40.1521 206.397 40.851 207.965 42.2503 208.504Z" fill="#060606"/>
<path d="M90.1639 174.738C91.5632 175.277 93.1331 174.583 93.6703 173.188C94.2075 171.793 93.5086 170.225 92.1093 169.686C90.7099 169.147 89.14 169.841 88.6028 171.237C88.0656 172.632 88.7645 174.2 90.1639 174.738Z" fill="#060606"/>
<path d="M72.6553 220.211C74.0546 220.75 75.6245 220.056 76.1617 218.66C76.6989 217.265 76 215.697 74.6007 215.158C73.2013 214.62 71.6314 215.314 71.0942 216.709C70.557 218.104 71.2559 219.672 72.6553 220.211Z" fill="#060606"/>
<path d="M52.1577 160.105C53.5571 160.643 55.1269 159.949 55.6641 158.554C56.2014 157.159 55.5025 155.591 54.1031 155.052C52.7038 154.513 51.1339 155.208 50.5967 156.603C50.0595 157.998 50.7584 159.566 52.1577 160.105Z" fill="#060606"/>
<path d="M34.6491 205.577C36.0484 206.116 37.6183 205.422 38.1555 204.027C38.6927 202.631 37.9938 201.064 36.5945 200.525C35.1951 199.986 33.6252 200.68 33.088 202.075C32.5508 203.471 33.2497 205.038 34.6491 205.577Z" fill="#060606"/>
<path d="M82.5626 171.812C83.962 172.35 85.5319 171.656 86.0691 170.261C86.6063 168.866 85.9074 167.298 84.5081 166.759C83.1087 166.22 81.5388 166.915 81.0016 168.31C80.4644 169.705 81.1633 171.273 82.5626 171.812Z" fill="#060606"/>
<path d="M65.054 217.284C66.4534 217.823 68.0233 217.129 68.5605 215.734C69.0977 214.338 68.3988 212.771 66.9994 212.232C65.6001 211.693 64.0302 212.387 63.493 213.782C62.9558 215.178 63.6547 216.745 65.054 217.284Z" fill="#060606"/>
<path d="M67.3602 165.958C68.7595 166.497 70.3294 165.803 70.8666 164.407C71.4038 163.012 70.7049 161.444 69.3056 160.906C67.9062 160.367 66.3363 161.061 65.7991 162.456C65.2619 163.851 65.9608 165.419 67.3602 165.958Z" fill="#060606"/>
<path d="M49.8515 211.431C51.2509 211.97 52.8208 211.275 53.358 209.88C53.8952 208.485 53.1963 206.917 51.7969 206.378C50.3976 205.839 48.8277 206.534 48.2905 207.929C47.7533 209.324 48.4522 210.892 49.8515 211.431Z" fill="#060606"/>
<path d="M97.7651 177.665C99.1645 178.204 100.734 177.51 101.272 176.114C101.809 174.719 101.11 173.151 99.7105 172.613C98.3112 172.074 96.7413 172.768 96.2041 174.163C95.6669 175.559 96.3658 177.126 97.7651 177.665Z" fill="#060606"/>
<path d="M80.2565 223.138C81.6558 223.677 83.2257 222.982 83.7629 221.587C84.3001 220.192 83.6012 218.624 82.2019 218.085C80.8025 217.546 79.2327 218.241 78.6954 219.636C78.1582 221.031 78.8571 222.599 80.2565 223.138Z" fill="#060606"/>
<path d="M38.7203 172.335C40.1196 172.874 41.6895 172.18 42.2267 170.785C42.7639 169.39 42.065 167.822 40.6657 167.283C39.2663 166.744 37.6964 167.438 37.1592 168.834C36.622 170.229 37.3209 171.797 38.7203 172.335Z" fill="#060606"/>
<path d="M21.2116 217.808C22.611 218.347 24.1809 217.653 24.7181 216.257C25.2553 214.862 24.5564 213.294 23.157 212.756C21.7577 212.217 20.1878 212.911 19.6506 214.306C19.1134 215.701 19.8123 217.269 21.2116 217.808Z" fill="#060606"/>
<path d="M69.1252 184.042C70.5246 184.581 72.0944 183.887 72.6316 182.492C73.1689 181.097 72.47 179.529 71.0706 178.99C69.6713 178.451 68.1014 179.145 67.5642 180.541C67.027 181.936 67.7259 183.504 69.1252 184.042Z" fill="#060606"/>
<path d="M51.6166 229.515C53.0159 230.054 54.5858 229.36 55.123 227.964C55.6602 226.569 54.9613 225.001 53.562 224.463C52.1626 223.924 50.5927 224.618 50.0555 226.013C49.5183 227.408 50.2172 228.976 51.6166 229.515Z" fill="#060606"/>
<path d="M53.9227 178.189C55.3221 178.728 56.892 178.033 57.4292 176.638C57.9664 175.243 57.2675 173.675 55.8681 173.136C54.4688 172.598 52.8989 173.292 52.3617 174.687C51.8245 176.082 52.5234 177.65 53.9227 178.189Z" fill="#060606"/>
<path d="M36.4141 223.662C37.8134 224.2 39.3833 223.506 39.9205 222.111C40.4578 220.716 39.7588 219.148 38.3595 218.609C36.9601 218.07 35.3903 218.764 34.8531 220.16C34.3158 221.555 35.0147 223.123 36.4141 223.662Z" fill="#060606"/>
<path d="M84.3277 189.896C85.727 190.435 87.2969 189.74 87.8341 188.345C88.3713 186.95 87.6724 185.382 86.2731 184.843C84.8737 184.305 83.3038 184.999 82.7666 186.394C82.2294 187.789 82.9283 189.357 84.3277 189.896Z" fill="#060606"/>
<path d="M66.819 235.369C68.2184 235.907 69.7883 235.213 70.3255 233.818C70.8627 232.423 70.1638 230.855 68.7644 230.316C67.3651 229.777 65.7952 230.471 65.258 231.867C64.7208 233.262 65.4197 234.83 66.819 235.369Z" fill="#060606"/>
<path d="M46.3215 175.262C47.7208 175.801 49.2907 175.107 49.8279 173.711C50.3651 172.316 49.6662 170.748 48.2669 170.21C46.8675 169.671 45.2977 170.365 44.7604 171.76C44.2232 173.156 44.9221 174.723 46.3215 175.262Z" fill="#060606"/>
<path d="M28.8129 220.735C30.2122 221.274 31.7821 220.579 32.3193 219.184C32.8565 217.789 32.1576 216.221 30.7583 215.682C29.3589 215.143 27.789 215.838 27.2518 217.233C26.7146 218.628 27.4135 220.196 28.8129 220.735Z" fill="#060606"/>
<path d="M76.7264 186.969C78.1258 187.508 79.6957 186.814 80.2329 185.418C80.7701 184.023 80.0712 182.455 78.6718 181.917C77.2725 181.378 75.7026 182.072 75.1654 183.467C74.6282 184.863 75.3271 186.43 76.7264 186.969Z" fill="#060606"/>
<path d="M59.2178 232.442C60.6172 232.981 62.187 232.286 62.7243 230.891C63.2615 229.496 62.5626 227.928 61.1632 227.389C59.7639 226.85 58.194 227.545 57.6568 228.94C57.1196 230.335 57.8185 231.903 59.2178 232.442Z" fill="#060606"/>
<path d="M61.524 181.116C62.9233 181.654 64.4932 180.96 65.0304 179.565C65.5676 178.17 64.8687 176.602 63.4694 176.063C62.07 175.524 60.5001 176.219 59.9629 177.614C59.4257 179.009 60.1246 180.577 61.524 181.116Z" fill="#060606"/>
<path d="M44.0153 226.588C45.4147 227.127 46.9846 226.433 47.5218 225.038C48.059 223.642 47.3601 222.075 45.9607 221.536C44.5614 220.997 42.9915 221.691 42.4543 223.086C41.9171 224.482 42.616 226.049 44.0153 226.588Z" fill="#060606"/>
<path d="M91.9289 192.823C93.3283 193.361 94.8981 192.667 95.4354 191.272C95.9726 189.877 95.2737 188.309 93.8743 187.77C92.475 187.231 90.9051 187.926 90.3679 189.321C89.8307 190.716 90.5296 192.284 91.9289 192.823Z" fill="#060606"/>
<path d="M74.4203 238.295C75.8196 238.834 77.3895 238.14 77.9267 236.745C78.4639 235.349 77.765 233.782 76.3657 233.243C74.9663 232.704 73.3964 233.398 72.8592 234.793C72.322 236.189 73.0209 237.756 74.4203 238.295Z" fill="#060606"/>
<path d="M32.884 187.493C34.2834 188.032 35.8533 187.337 36.3905 185.942C36.9277 184.547 36.2288 182.979 34.8294 182.44C33.4301 181.902 31.8602 182.596 31.323 183.991C30.7858 185.386 31.4847 186.954 32.884 187.493Z" fill="#060606"/>
<path d="M15.3754 232.966C16.7748 233.504 18.3447 232.81 18.8819 231.415C19.4191 230.02 18.7202 228.452 17.3208 227.913C15.9215 227.374 14.3516 228.068 13.8144 229.464C13.2772 230.859 13.9761 232.427 15.3754 232.966Z" fill="#060606"/>
<path d="M63.289 199.2C64.6883 199.739 66.2582 199.044 66.7954 197.649C67.3326 196.254 66.6337 194.686 65.2344 194.147C63.835 193.609 62.2652 194.303 61.7279 195.698C61.1907 197.093 61.8896 198.661 63.289 199.2Z" fill="#060606"/>
<path d="M45.7804 244.673C47.1797 245.211 48.7496 244.517 49.2868 243.122C49.824 241.727 49.1251 240.159 47.7258 239.62C46.3264 239.081 44.7565 239.776 44.2193 241.171C43.6821 242.566 44.381 244.134 45.7804 244.673Z" fill="#060606"/>
<path d="M48.0865 193.346C49.4859 193.885 51.0558 193.191 51.593 191.796C52.1302 190.401 51.4313 188.833 50.0319 188.294C48.6326 187.755 47.0627 188.449 46.5255 189.845C45.9883 191.24 46.6872 192.808 48.0865 193.346Z" fill="#060606"/>
<path d="M30.5779 238.819C31.9772 239.358 33.5471 238.664 34.0843 237.268C34.6215 235.873 33.9226 234.305 32.5233 233.767C31.1239 233.228 29.5541 233.922 29.0168 235.317C28.4796 236.712 29.1785 238.28 30.5779 238.819Z" fill="#060606"/>
<path d="M78.4915 205.053C79.8908 205.592 81.4607 204.898 81.9979 203.503C82.5351 202.108 81.8362 200.54 80.4369 200.001C79.0375 199.462 77.4676 200.156 76.9304 201.552C76.3932 202.947 77.0921 204.515 78.4915 205.053Z" fill="#060606"/>
<path d="M60.9828 250.526C62.3822 251.065 63.9521 250.371 64.4893 248.975C65.0265 247.58 64.3276 246.012 62.9282 245.474C61.5289 244.935 59.959 245.629 59.4218 247.024C58.8846 248.419 59.5835 249.987 60.9828 250.526Z" fill="#060606"/>
<path d="M40.4853 190.42C41.8846 190.958 43.4545 190.264 43.9917 188.869C44.5289 187.474 43.83 185.906 42.4307 185.367C41.0313 184.828 39.4614 185.523 38.9242 186.918C38.387 188.313 39.0859 189.881 40.4853 190.42Z" fill="#060606"/>
<path d="M22.9766 235.892C24.376 236.431 25.9459 235.737 26.4831 234.342C27.0203 232.946 26.3214 231.379 24.9221 230.84C23.5227 230.301 21.9528 230.995 21.4156 232.39C20.8784 233.786 21.5773 235.354 22.9766 235.892Z" fill="#060606"/>
<path d="M70.8902 202.127C72.2896 202.666 73.8595 201.971 74.3967 200.576C74.9339 199.181 74.235 197.613 72.8356 197.074C71.4363 196.535 69.8664 197.23 69.3292 198.625C68.792 200.02 69.4909 201.588 70.8902 202.127Z" fill="#060606"/>
<path d="M53.3816 247.599C54.7809 248.138 56.3508 247.444 56.888 246.049C57.4253 244.653 56.7263 243.086 55.327 242.547C53.9276 242.008 52.3578 242.702 51.8205 244.097C51.2833 245.493 51.9822 247.061 53.3816 247.599Z" fill="#060606"/>
<path d="M55.6878 196.273C57.0871 196.812 58.657 196.118 59.1942 194.723C59.7314 193.327 59.0325 191.759 57.6332 191.221C56.2338 190.682 54.6639 191.376 54.1267 192.771C53.5895 194.167 54.2884 195.734 55.6878 196.273Z" fill="#060606"/>
<path d="M38.1791 241.746C39.5785 242.285 41.1484 241.59 41.6856 240.195C42.2228 238.8 41.5239 237.232 40.1245 236.693C38.7252 236.155 37.1553 236.849 36.6181 238.244C36.0809 239.639 36.7798 241.207 38.1791 241.746Z" fill="#060606"/>
<path d="M86.0927 207.98C87.492 208.519 89.0619 207.825 89.5991 206.43C90.1364 205.034 89.4375 203.467 88.0381 202.928C86.6388 202.389 85.0689 203.083 84.5317 204.478C83.9944 205.874 84.6933 207.441 86.0927 207.98Z" fill="#060606"/>
<path d="M68.5841 253.453C69.9834 253.992 71.5533 253.297 72.0905 251.902C72.6277 250.507 71.9288 248.939 70.5295 248.4C69.1301 247.862 67.5602 248.556 67.023 249.951C66.4858 251.346 67.1847 252.914 68.5841 253.453Z" fill="#060606"/>
</mask>
<g mask="url(#mask0_4_1142)">
<path d="M50.0609 235.599C34.2514 236.086 21.2065 229.061 20.9244 219.908C20.6423 210.755 33.2298 202.94 49.0393 202.453C64.8489 201.966 77.8937 208.991 78.1758 218.143C78.4579 227.296 65.8705 235.111 50.0609 235.599Z" fill="black"/>
</g>
<path d="M114.4 265.3C114.3 274.4 101.5 281.7 85.7999 281.5C70.0999 281.3 57.3999 273.9 57.4999 264.8C57.4999 262.6 57.5999 255.5 57.6999 255C59.1999 247.8 74.2999 248.4 86.0999 248.5C97.8999 248.6 109.1 249.5 114.2 254.7C114.3 255 114.4 263.1 114.4 265.3Z" fill="black" stroke="black" stroke-width="2" stroke-miterlimit="10" stroke-linecap="round" stroke-linejoin="round"/>
<path d="M114.466 256.441C114.55 247.328 101.859 239.822 86.1185 239.677C70.3784 239.531 57.55 246.8 57.4656 255.913C57.3812 265.025 70.0726 272.531 85.8128 272.677C101.553 272.822 114.381 265.553 114.466 256.441Z" fill="white" stroke="black" stroke-width="2" stroke-miterlimit="10" stroke-linecap="round" stroke-linejoin="round"/>
<path d="M196.099 260L219.899 246.5L244.699 261C248.199 263 248.099 268.1 244.599 270L234.699 275.6C231.199 277.6 226.899 277.6 223.399 275.6L196.099 260Z" fill="url(#paint1_linear_4_1142)" stroke="black" stroke-width="2" stroke-miterlimit="10" stroke-linecap="round" stroke-linejoin="round"/>
<path d="M166.699 239.1L184.199 229.2C186.099 228.1 188.499 228.1 190.499 229.2L219.999 246.5L196.499 260.3L166.699 242.7C165.299 241.9 165.299 239.9 166.699 239.1Z" fill="black" stroke="black" stroke-width="2" stroke-miterlimit="10" stroke-linecap="round" stroke-linejoin="round"/>
<path d="M171.099 229.3L183.299 222.4C186.399 220.7 190.199 221 192.799 223.3L219.899 246.4L196.899 260.2L170.299 237.8C167.599 235.5 167.999 231.1 171.099 229.3Z" fill="white" stroke="black" stroke-width="2" stroke-miterlimit="10" stroke-linecap="round" stroke-linejoin="round"/>
<defs>
<linearGradient id="paint0_linear_4_1142" x1="73.9168" y1="85.099" x2="201.228" y2="85.099" gradientUnits="userSpaceOnUse">
<stop stop-color="#FF7171"/>
<stop offset="1" stop-color="#ADFF9B"/>
</linearGradient>
<linearGradient id="paint1_linear_4_1142" x1="196.092" y1="261.793" x2="247.282" y2="261.793" gradientUnits="userSpaceOnUse">
<stop stop-color="#FF7171"/>
<stop offset="1" stop-color="#ADFF9B"/>
</linearGradient>
</defs>
</svg>
