<svg width="699" height="449" viewBox="0 0 699 449" fill="none" xmlns="http://www.w3.org/2000/svg">
<path d="M697.51 222.294C697.51 225.254 695.34 228.374 691.12 230.814L686.04 233.744L319.66 445.274C311.94 449.734 300.26 450.214 293.58 446.354L12.0701 283.824L5.11011 279.804C2.08011 278.064 0.600098 275.724 0.600098 273.274C0.600098 270.314 2.76999 267.184 6.98999 264.754L87 218.554L88.3201 217.794L126.17 195.944L378.45 50.2841C386.16 45.8341 397.84 45.3441 404.53 49.2041L692.99 215.754C696.02 217.504 697.51 219.844 697.51 222.294Z" fill="#E0E8F7"/>
<path d="M697.51 176.294C697.51 179.254 695.34 182.374 691.12 184.814L686.04 187.744L319.66 399.274C311.94 403.734 300.26 404.214 293.58 400.354L12.0701 237.824L5.11011 233.804C2.08011 232.064 0.600098 229.724 0.600098 227.274C0.600098 224.314 2.76999 221.184 6.98999 218.754L87 172.554L88.3201 171.794L126.17 149.944L378.45 4.28409C386.16 -0.16591 397.84 -0.655866 404.53 3.20413L692.99 169.754C696.02 171.504 697.51 173.844 697.51 176.294Z" fill="white" stroke="#242293" stroke-width="1.2" stroke-linecap="round" stroke-linejoin="round"/>
<path d="M697.51 176.294V198.294C697.51 201.254 695.34 204.374 691.12 206.814L319.66 421.274C311.94 425.734 300.26 426.214 293.58 422.354L5.11011 255.804C2.08011 254.064 0.600098 251.724 0.600098 249.274V227.274C0.600098 229.724 2.08011 232.064 5.11011 233.804L12.0701 237.824L293.58 400.354C300.26 404.214 311.94 403.734 319.66 399.274L686.04 187.744L691.12 184.814C695.34 182.374 697.51 179.254 697.51 176.294Z" fill="#E0E8F7" stroke="#242293" stroke-width="1.2" stroke-linecap="round" stroke-linejoin="round"/>
<path d="M610.16 195.154C611.05 194.124 612.24 193.164 613.72 192.304C619.95 188.714 629.4 188.104 636.72 190.484C639.52 191.404 643.06 191.044 645.33 189.734L657.8 182.534C659.24 181.704 659.95 180.624 659.95 179.534V169.534C659.95 170.624 659.24 171.704 657.8 172.534L654.34 174.534L645.33 179.734C643.06 181.044 639.52 181.404 636.72 180.484C629.4 178.104 619.95 178.714 613.72 182.304C607.7 185.784 606.52 190.994 610.16 195.154Z" fill="#E0E8F7" stroke="#242293" stroke-width="1.2" stroke-linecap="round" stroke-linejoin="round"/>
<path d="M370.49 25.4043V35.3944C370.51 36.0444 370.79 36.6943 371.37 37.2843C371.51 37.4243 371.65 37.5744 371.77 37.7244C373.42 35.8444 374.08 33.7543 373.74 31.6943C373.5 30.1643 372.71 28.6543 371.37 27.2843C370.79 26.6943 370.51 26.0543 370.49 25.4043Z" fill="#E0E8F7" stroke="#242293" stroke-width="1.2" stroke-linecap="round" stroke-linejoin="round"/>
<path d="M316.79 56.3443C316.79 57.4243 317.5 58.5143 318.94 59.3443L322.4 61.3443L324.75 62.6943L335.03 68.6343L345.31 74.5643L355.59 80.5043L365.87 86.4443H365.88L379.69 94.4142L384.85 91.4342C388.76 89.1842 395.09 89.1842 399 91.4342C402.91 93.6942 402.91 97.3543 399 99.6043L397.23 100.624L393.84 102.584L401.58 107.054L406.27 109.764L416.55 115.694L426.83 121.634L437.11 127.564L447.39 133.504L457.67 139.434L467.95 145.374L478.23 151.304L488.51 157.244L498.79 163.184L509.07 169.114L519.35 175.054L529.63 180.984L539.91 186.924L550.189 192.854L560.469 198.794L570.75 204.724L581.199 210.764C584.069 212.414 588.73 212.414 591.6 210.764L605.34 202.824L608.189 201.184L609.26 200.564C610.63 199.764 611.399 198.714 611.439 197.644C611.469 196.944 611.19 196.234 610.56 195.594C610.42 195.454 610.28 195.304 610.16 195.154C606.52 190.994 607.699 185.784 613.719 182.304C619.949 178.714 629.399 178.104 636.719 180.484C639.519 181.404 643.06 181.044 645.33 179.734L654.34 174.534L657.8 172.534C659.24 171.704 659.949 170.624 659.949 169.534C659.949 168.444 659.24 167.364 657.8 166.534L395.54 15.1143C392.66 13.4543 388.01 13.4643 385.14 15.1143L372.67 22.3143C371.23 23.1443 370.46 24.2742 370.49 25.4042C370.51 26.0542 370.79 26.6942 371.37 27.2842C372.71 28.6542 373.5 30.1643 373.74 31.6943C374.08 33.7543 373.42 35.8443 371.77 37.7243C370.88 38.7543 369.69 39.7043 368.21 40.5643C361.98 44.1643 352.53 44.7643 345.21 42.3943C342.41 41.4743 338.87 41.8343 336.6 43.1443L332.68 45.4042L318.94 53.3443C317.5 54.1643 316.79 55.2543 316.79 56.3443Z" fill="white" stroke="#242293" stroke-width="1.2" stroke-linecap="round" stroke-linejoin="round"/>
<path d="M316.79 56.3444C316.79 57.4244 317.5 58.5144 318.94 59.3444L322.4 61.3444L324.75 62.6943L335.03 68.6344L345.31 74.5643L355.59 80.5044L365.87 86.4443H365.88L379.69 94.4143L384.85 91.4343C388.76 89.1843 395.09 89.1843 399 91.4343C402.91 93.6943 402.91 97.3544 399 99.6044L397.23 100.624L393.84 102.584L401.58 107.054L406.27 109.764L416.55 115.694L426.83 121.634L437.11 127.564L447.39 133.504L457.67 139.434L467.95 145.374L478.23 151.304L488.51 157.244L498.79 163.184L509.07 169.114L519.35 175.054L529.63 180.984L539.91 186.924L550.189 192.854L560.469 198.794L570.75 204.724L581.199 210.764C584.069 212.414 588.73 212.414 591.6 210.764L605.34 202.824L344.4 52.1643H344.38L332.68 45.4043L318.94 53.3444C317.5 54.1644 316.79 55.2544 316.79 56.3444Z" fill="#FF9071" stroke="#242293" stroke-width="1.2" stroke-linecap="round" stroke-linejoin="round"/>
<path d="M579.78 199.514L570.75 204.724" stroke="#242293" stroke-width="1.2" stroke-linecap="round" stroke-linejoin="round"/>
<path d="M569.499 193.584L560.469 198.794" stroke="#242293" stroke-width="1.2" stroke-linecap="round" stroke-linejoin="round"/>
<path d="M559.21 187.644L550.19 192.854" stroke="#242293" stroke-width="1.2" stroke-linecap="round" stroke-linejoin="round"/>
<path d="M548.929 181.714L539.91 186.914" stroke="#242293" stroke-width="1.2" stroke-linecap="round" stroke-linejoin="round"/>
<path d="M538.649 175.774L529.629 180.984" stroke="#242293" stroke-width="1.2" stroke-linecap="round" stroke-linejoin="round"/>
<path d="M528.37 169.834L519.35 175.044" stroke="#242293" stroke-width="1.2" stroke-linecap="round" stroke-linejoin="round"/>
<path d="M518.09 163.904L509.07 169.114" stroke="#242293" stroke-width="1.2" stroke-linecap="round" stroke-linejoin="round"/>
<path d="M507.81 157.964L498.79 163.174" stroke="#242293" stroke-width="1.2" stroke-linecap="round" stroke-linejoin="round"/>
<path d="M497.529 152.034L488.509 157.244" stroke="#242293" stroke-width="1.2" stroke-linecap="round" stroke-linejoin="round"/>
<path d="M487.25 146.094L478.23 151.304" stroke="#242293" stroke-width="1.2" stroke-linecap="round" stroke-linejoin="round"/>
<path d="M476.97 140.164L467.95 145.374" stroke="#242293" stroke-width="1.2" stroke-linecap="round" stroke-linejoin="round"/>
<path d="M466.689 134.224L457.669 139.434" stroke="#242293" stroke-width="1.2" stroke-linecap="round" stroke-linejoin="round"/>
<path d="M456.409 128.294L447.389 133.505" stroke="#242293" stroke-width="1.2" stroke-linecap="round" stroke-linejoin="round"/>
<path d="M446.13 122.354L437.11 127.564" stroke="#242293" stroke-width="1.2" stroke-linecap="round" stroke-linejoin="round"/>
<path d="M435.85 116.424L426.83 121.624" stroke="#242293" stroke-width="1.2" stroke-linecap="round" stroke-linejoin="round"/>
<path d="M425.57 110.484L416.54 115.694" stroke="#242293" stroke-width="1.2" stroke-linecap="round" stroke-linejoin="round"/>
<path d="M415.289 104.544L406.259 109.755" stroke="#242293" stroke-width="1.2" stroke-linecap="round" stroke-linejoin="round"/>
<path d="M374.89 81.2241L365.87 86.4341" stroke="#242293" stroke-width="1.2" stroke-linecap="round" stroke-linejoin="round"/>
<path d="M364.609 75.2944L355.589 80.5045" stroke="#242293" stroke-width="1.2" stroke-linecap="round" stroke-linejoin="round"/>
<path d="M354.329 69.354L345.309 74.564" stroke="#242293" stroke-width="1.2" stroke-linecap="round" stroke-linejoin="round"/>
<path d="M344.05 63.4243L335.03 68.6344" stroke="#242293" stroke-width="1.2" stroke-linecap="round" stroke-linejoin="round"/>
<path d="M333.77 57.4844L324.75 62.6943" stroke="#242293" stroke-width="1.2" stroke-linecap="round" stroke-linejoin="round"/>
<path d="M387.599 58.0644C387.599 58.6144 387.939 59.1543 388.629 59.5543L391.089 60.9844L402.489 67.5644C403.999 68.4444 406.649 68.3344 408.399 67.3144L430.879 54.3444L432.919 53.1643C433.839 52.6343 434.329 51.9644 434.359 51.3144V51.1244C434.319 50.6044 433.989 50.1144 433.339 49.7444L419.469 41.7344C417.959 40.8644 415.299 40.9744 413.559 41.9844L389.039 56.1444C388.079 56.6944 387.589 57.4044 387.589 58.0744L387.599 58.0644Z" fill="#FF9071" stroke="#242293" stroke-width="1.2" stroke-linecap="round" stroke-linejoin="round"/>
<path d="M387.599 58.0642V64.0842C387.599 64.6342 387.939 65.1742 388.629 65.5742L402.499 73.5742C404.009 74.4542 406.659 74.3442 408.409 73.3242L432.929 59.1742C433.849 58.6442 434.339 57.9742 434.369 57.3242V51.3042C434.339 51.9542 433.849 52.6242 432.929 53.1542L430.889 54.3342L408.409 67.3042C406.659 68.3142 404.009 68.4342 402.499 67.5542L391.099 60.9742L388.639 59.5442C387.949 59.1442 387.609 58.6042 387.609 58.0542L387.599 58.0642Z" fill="#FF3800" stroke="#242293" stroke-width="1.2" stroke-linecap="round" stroke-linejoin="round"/>
<path d="M420.719 77.2642C420.719 77.8142 421.059 78.3542 421.749 78.7542L424.209 80.1841L435.609 86.7642C437.119 87.6442 439.769 87.5342 441.519 86.5142L463.999 73.5441L466.039 72.3642C466.959 71.8342 467.449 71.1642 467.479 70.5142V70.3241C467.439 69.8041 467.109 69.3141 466.459 68.9441L452.589 60.9341C451.079 60.0641 448.419 60.1741 446.679 61.1841L422.159 75.3441C421.199 75.8941 420.709 76.6042 420.709 77.2742L420.719 77.2642Z" fill="#FF9071" stroke="#242293" stroke-width="1.2" stroke-linecap="round" stroke-linejoin="round"/>
<path d="M420.719 77.2644V83.2843C420.719 83.8343 421.059 84.3744 421.749 84.7744L435.619 92.7744C437.129 93.6544 439.779 93.5444 441.529 92.5244L466.049 78.3744C466.969 77.8444 467.459 77.1744 467.489 76.5244V70.5044C467.459 71.1544 466.969 71.8244 466.049 72.3544L464.009 73.5343L441.529 86.5044C439.779 87.5144 437.129 87.6344 435.619 86.7544L424.219 80.1743L421.759 78.7444C421.069 78.3444 420.729 77.8044 420.729 77.2544L420.719 77.2644Z" fill="#FF3800" stroke="#242293" stroke-width="1.2" stroke-linecap="round" stroke-linejoin="round"/>
<path d="M453.849 96.4745C453.849 97.0245 454.189 97.5645 454.879 97.9645L457.339 99.3946L468.739 105.975C470.249 106.855 472.899 106.745 474.649 105.725L497.129 92.7545L499.169 91.5745C500.089 91.0445 500.579 90.3745 500.609 89.7245V89.5345C500.569 89.0145 500.239 88.5244 499.589 88.1544L485.719 80.1446C484.209 79.2746 481.549 79.3846 479.809 80.3946L455.289 94.5545C454.329 95.1045 453.839 95.8145 453.839 96.4845L453.849 96.4745Z" fill="#FF9071" stroke="#242293" stroke-width="1.2" stroke-linecap="round" stroke-linejoin="round"/>
<path d="M453.849 96.4744V102.494C453.849 103.044 454.189 103.584 454.879 103.984L468.749 111.984C470.259 112.864 472.909 112.754 474.659 111.734L499.179 97.5844C500.099 97.0544 500.589 96.3844 500.619 95.7344V89.7144C500.589 90.3644 500.099 91.0343 499.179 91.5643L497.139 92.7444L474.659 105.714C472.909 106.724 470.259 106.844 468.749 105.964L457.349 99.3844L454.889 97.9543C454.199 97.5543 453.859 97.0144 453.859 96.4644L453.849 96.4744Z" fill="#FF3800" stroke="#242293" stroke-width="1.2" stroke-linecap="round" stroke-linejoin="round"/>
<path d="M486.969 115.674C486.969 116.224 487.309 116.764 487.999 117.164L490.459 118.594L501.859 125.174C503.369 126.054 506.019 125.944 507.769 124.924L530.249 111.954L532.289 110.774C533.209 110.244 533.699 109.574 533.729 108.924V108.734C533.689 108.214 533.359 107.724 532.709 107.354L518.839 99.3443C517.329 98.4743 514.669 98.5843 512.929 99.5943L488.409 113.754C487.449 114.304 486.959 115.014 486.959 115.684L486.969 115.674Z" fill="#FF9071" stroke="#242293" stroke-width="1.2" stroke-linecap="round" stroke-linejoin="round"/>
<path d="M486.969 115.674V121.694C486.969 122.244 487.309 122.784 487.999 123.184L501.869 131.184C503.379 132.064 506.029 131.954 507.779 130.934L532.299 116.784C533.219 116.254 533.709 115.584 533.739 114.934V108.914C533.709 109.564 533.219 110.234 532.299 110.764L530.259 111.944L507.779 124.914C506.029 125.924 503.379 126.044 501.869 125.164L490.469 118.584L488.009 117.154C487.319 116.754 486.979 116.214 486.979 115.664L486.969 115.674Z" fill="#FF3800" stroke="#242293" stroke-width="1.2" stroke-linecap="round" stroke-linejoin="round"/>
<path d="M520.099 134.884C520.099 135.434 520.439 135.974 521.129 136.374L523.589 137.804L534.989 144.384C536.499 145.264 539.149 145.154 540.899 144.134L563.379 131.164L565.419 129.984C566.339 129.454 566.829 128.784 566.859 128.134V127.944C566.819 127.424 566.489 126.934 565.839 126.564L551.969 118.554C550.459 117.684 547.799 117.794 546.059 118.804L521.539 132.964C520.579 133.514 520.089 134.224 520.089 134.894L520.099 134.884Z" fill="#FF9071" stroke="#242293" stroke-width="1.2" stroke-linecap="round" stroke-linejoin="round"/>
<path d="M520.099 134.885V140.904C520.099 141.454 520.439 141.995 521.129 142.395L534.999 150.395C536.509 151.275 539.159 151.165 540.909 150.145L565.429 135.995C566.349 135.465 566.839 134.795 566.869 134.145V128.125C566.839 128.775 566.349 129.444 565.429 129.974L563.389 131.154L540.909 144.125C539.159 145.135 536.509 145.255 534.999 144.375L523.599 137.794L521.139 136.365C520.449 135.965 520.109 135.425 520.109 134.875L520.099 134.885Z" fill="#FF3800" stroke="#242293" stroke-width="1.2" stroke-linecap="round" stroke-linejoin="round"/>
<path d="M553.229 154.084C553.229 154.634 553.569 155.174 554.259 155.574L556.719 157.004L568.119 163.584C569.629 164.464 572.279 164.354 574.029 163.334L596.509 150.364L598.549 149.184C599.469 148.654 599.959 147.984 599.989 147.334V147.144C599.949 146.624 599.619 146.134 598.969 145.764L585.099 137.754C583.589 136.884 580.929 136.994 579.189 138.004L554.669 152.164C553.709 152.714 553.219 153.424 553.219 154.094L553.229 154.084Z" fill="#FF9071" stroke="#242293" stroke-width="1.2" stroke-linecap="round" stroke-linejoin="round"/>
<path d="M553.229 154.084V160.104C553.229 160.654 553.569 161.194 554.259 161.594L568.129 169.594C569.639 170.474 572.289 170.364 574.039 169.344L598.559 155.194C599.479 154.664 599.969 153.994 599.999 153.344V147.324C599.969 147.974 599.479 148.644 598.559 149.174L596.519 150.354L574.039 163.324C572.289 164.334 569.639 164.454 568.129 163.574L556.729 156.994L554.269 155.564C553.579 155.164 553.239 154.624 553.239 154.074L553.229 154.084Z" fill="#FF3800" stroke="#242293" stroke-width="1.2" stroke-linecap="round" stroke-linejoin="round"/>
<path d="M402.049 32.1992C402.735 32.1992 403.393 32.3516 403.869 32.627C404.347 32.904 404.474 33.1981 404.474 33.3896C404.474 33.5813 404.347 33.8745 403.869 34.1514C403.393 34.4267 402.735 34.5791 402.049 34.5791C401.364 34.5791 400.706 34.4267 400.23 34.1514C399.752 33.8745 399.625 33.5812 399.625 33.3896C399.625 33.1981 399.751 32.904 400.23 32.627C400.706 32.3516 401.364 32.1992 402.049 32.1992Z" fill="#223893" stroke="#242293"/>
<path d="M391.509 38.2793C392.195 38.2793 392.853 38.4318 393.329 38.707C393.807 38.9841 393.934 39.2782 393.934 39.4697C393.934 39.6613 393.807 39.9546 393.329 40.2314C392.853 40.5067 392.195 40.6592 391.509 40.6592C390.824 40.6591 390.166 40.5068 389.69 40.2314C389.212 39.9546 389.085 39.6613 389.084 39.4697C389.084 39.2782 389.211 38.9841 389.69 38.707C390.166 38.4317 390.824 38.2793 391.509 38.2793Z" fill="#223893" stroke="#242293"/>
<path d="M380.969 44.3691C381.655 44.3691 382.313 44.5216 382.789 44.7969C383.267 45.074 383.394 45.368 383.394 45.5596C383.394 45.7512 383.267 46.0444 382.789 46.3213C382.313 46.5966 381.655 46.749 380.969 46.749C380.283 46.749 379.625 46.5966 379.15 46.3213C378.672 46.0444 378.545 45.7512 378.544 45.5596C378.544 45.368 378.671 45.074 379.15 44.7969C379.625 44.5215 380.283 44.3692 380.969 44.3691Z" fill="#223893" stroke="#242293"/>
<path d="M370.429 50.4492C371.115 50.4492 371.773 50.6016 372.249 50.877C372.727 51.154 372.854 51.4481 372.854 51.6396C372.854 51.8313 372.727 52.1245 372.249 52.4014C371.773 52.6767 371.115 52.8291 370.429 52.8291C369.743 52.8291 369.085 52.6767 368.61 52.4014C368.132 52.1245 368.005 51.8312 368.004 51.6396C368.004 51.4481 368.131 51.154 368.61 50.877C369.085 50.6016 369.743 50.4492 370.429 50.4492Z" fill="#223893" stroke="#242293"/>
<path d="M622.139 159.879C622.825 159.879 623.483 160.032 623.958 160.307C624.437 160.584 624.564 160.878 624.564 161.07C624.564 161.261 624.437 161.555 623.958 161.832C623.483 162.107 622.825 162.259 622.139 162.259C621.453 162.259 620.795 162.107 620.32 161.832C619.842 161.555 619.715 161.261 619.714 161.07C619.714 160.878 619.841 160.584 620.32 160.307C620.795 160.032 621.453 159.879 622.139 159.879Z" fill="#223893" stroke="#242293"/>
<path d="M611.609 165.959C612.295 165.959 612.953 166.112 613.428 166.387C613.907 166.664 614.034 166.958 614.034 167.15C614.034 167.342 613.906 167.635 613.428 167.912C612.953 168.187 612.295 168.339 611.609 168.339C610.923 168.339 610.265 168.187 609.79 167.912C609.311 167.635 609.184 167.341 609.184 167.15C609.184 166.958 609.311 166.664 609.79 166.387C610.265 166.112 610.923 165.959 611.609 165.959Z" fill="#223893" stroke="#242293"/>
<path d="M601.069 172.04C601.755 172.04 602.413 172.192 602.888 172.467C603.367 172.744 603.495 173.038 603.495 173.23C603.494 173.422 603.366 173.715 602.888 173.992C602.413 174.267 601.755 174.419 601.069 174.419C600.383 174.419 599.725 174.267 599.25 173.992C598.771 173.715 598.644 173.422 598.644 173.23C598.644 173.038 598.771 172.744 599.25 172.467C599.725 172.192 600.383 172.04 601.069 172.04Z" fill="#223893" stroke="#242293"/>
<path d="M590.529 178.129C591.214 178.129 591.873 178.282 592.348 178.557C592.827 178.834 592.955 179.128 592.955 179.32C592.954 179.511 592.826 179.805 592.348 180.082C591.873 180.357 591.215 180.509 590.529 180.509C589.843 180.509 589.185 180.357 588.709 180.082C588.231 179.805 588.104 179.511 588.104 179.32C588.104 179.128 588.231 178.834 588.709 178.557C589.185 178.282 589.843 178.129 590.529 178.129Z" fill="#223893" stroke="#242293"/>
<path d="M316.79 56.3442V66.3442C316.79 67.4242 317.5 68.5142 318.94 69.3442L379.69 104.414L384.85 101.434C388.21 99.4942 393.37 99.2243 397.23 100.624L399 99.6042C402.91 97.3542 402.91 93.6942 399 91.4342C395.09 89.1842 388.76 89.1842 384.85 91.4342L379.69 94.4142L365.88 86.4442L355.59 80.5043L345.31 74.5642L335.03 68.6343L324.75 62.6942L322.4 61.3442L318.94 59.3442C317.5 58.5142 316.79 57.4242 316.79 56.3442Z" fill="#FF3800" stroke="#242293" stroke-width="1.2" stroke-linecap="round" stroke-linejoin="round"/>
<path d="M379.69 94.4141V104.414" stroke="#242293" stroke-width="1.2" stroke-linecap="round" stroke-linejoin="round"/>
<path d="M605.339 202.824V212.824L609.259 210.564C610.779 209.684 611.559 208.474 611.439 207.294V197.644C611.399 198.714 610.629 199.764 609.259 200.564L608.189 201.184L605.339 202.824Z" fill="#E0E8F7" stroke="#242293" stroke-width="1.2" stroke-linecap="round" stroke-linejoin="round"/>
<path d="M393.839 102.584V112.584L581.199 220.765C584.069 222.415 588.729 222.415 591.599 220.765L605.339 212.824V202.824L591.599 210.765C588.729 212.415 584.069 212.415 581.199 210.765L570.749 204.724L560.469 198.794L550.189 192.854L539.909 186.924L529.629 180.984L519.349 175.054L509.069 169.115L498.789 163.184L488.509 157.245L478.229 151.304L467.949 145.375L457.669 139.434L447.389 133.505L437.109 127.564L426.829 121.635L416.549 115.694L406.269 109.765L401.579 107.054L393.839 102.584Z" fill="#FF3800" stroke="#242293" stroke-width="1.2" stroke-linecap="round" stroke-linejoin="round"/>
<path d="M611.44 197.644V197.484" stroke="#242293" stroke-width="1.2" stroke-linecap="round" stroke-linejoin="round"/>
<path d="M324.75 62.6943V72.6943" stroke="#242293" stroke-width="1.2" stroke-linecap="round" stroke-linejoin="round"/>
<path d="M335.03 68.6343V78.6343" stroke="#242293" stroke-width="1.2" stroke-linecap="round" stroke-linejoin="round"/>
<path d="M172.51 233.784L88.8003 282.104" stroke="#242293" stroke-width="1.2" stroke-linecap="round" stroke-linejoin="round"/>
<path d="M181 238.684L97.2896 287.004" stroke="#242293" stroke-width="1.2" stroke-linecap="round" stroke-linejoin="round"/>
<path d="M189.5 243.584L105.79 291.904" stroke="#242293" stroke-width="1.2" stroke-linecap="round" stroke-linejoin="round"/>
<path d="M197.99 248.494L114.28 296.814" stroke="#242293" stroke-width="1.2" stroke-linecap="round" stroke-linejoin="round"/>
<path d="M206.48 253.394L122.77 301.714" stroke="#242293" stroke-width="1.2" stroke-linecap="round" stroke-linejoin="round"/>
<path d="M328.32 142.044L270.42 175.414" stroke="#242293" stroke-width="1.2" stroke-linecap="round" stroke-linejoin="round"/>
<path d="M336.821 146.944L278.911 180.324" stroke="#242293" stroke-width="1.2" stroke-linecap="round" stroke-linejoin="round"/>
<path d="M345.311 151.854L287.411 185.224" stroke="#242293" stroke-width="1.2" stroke-linecap="round" stroke-linejoin="round"/>
<path d="M353.801 156.754L295.901 190.124" stroke="#242293" stroke-width="1.2" stroke-linecap="round" stroke-linejoin="round"/>
<path d="M362.29 161.654L304.39 195.034" stroke="#242293" stroke-width="1.2" stroke-linecap="round" stroke-linejoin="round"/>
<path d="M349.75 274.594L291.29 240.854" stroke="#242293" stroke-width="1.2" stroke-linecap="round" stroke-linejoin="round"/>
<path d="M381.03 249.144L297.32 297.464" stroke="#242293" stroke-width="1.2" stroke-linecap="round" stroke-linejoin="round"/>
<path d="M182.49 196.014L114.43 156.724" stroke="#242293" stroke-width="1.2" stroke-linecap="round" stroke-linejoin="round"/>
<path d="M190.98 191.104L122.93 151.824" stroke="#242293" stroke-width="1.2" stroke-linecap="round" stroke-linejoin="round"/>
<path d="M199.47 186.205L131.42 146.915" stroke="#242293" stroke-width="1.2" stroke-linecap="round" stroke-linejoin="round"/>
<path d="M207.971 181.304L139.911 142.014" stroke="#242293" stroke-width="1.2" stroke-linecap="round" stroke-linejoin="round"/>
<path d="M216.461 176.394L148.411 137.114" stroke="#242293" stroke-width="1.2" stroke-linecap="round" stroke-linejoin="round"/>
<path d="M224.95 171.494L156.89 132.214" stroke="#242293" stroke-width="1.2" stroke-linecap="round" stroke-linejoin="round"/>
<path d="M570.19 266.354L562.09 271.034" stroke="#242293" stroke-width="1.2" stroke-linecap="round" stroke-linejoin="round"/>
<path d="M611.44 242.544L579.53 260.964" stroke="#242293" stroke-width="1.2" stroke-linecap="round" stroke-linejoin="round"/>
<path d="M637.91 227.254L619.64 237.804" stroke="#242293" stroke-width="1.2" stroke-linecap="round" stroke-linejoin="round"/>
<path d="M24.0898 256.094L15.9897 251.414" stroke="#242293" stroke-width="1.2" stroke-linecap="round" stroke-linejoin="round"/>
<path d="M65.3302 279.904L33.4302 261.484" stroke="#242293" stroke-width="1.2" stroke-linecap="round" stroke-linejoin="round"/>
<path d="M91.8096 295.194L73.5396 284.644" stroke="#242293" stroke-width="1.2" stroke-linecap="round" stroke-linejoin="round"/>
<path d="M286.37 203.434V203.624C286.35 204.644 285.83 205.624 284.83 206.204L247.2 227.934C244.91 229.254 242.09 229.254 239.79 227.934L202.16 206.204C201.13 205.614 200.62 204.574 200.62 203.534C200.62 202.494 201.13 201.454 202.16 200.854L239.79 179.134C242.09 177.804 244.91 177.804 247.2 179.134L284.83 200.854C285.83 201.434 286.35 202.424 286.37 203.434Z" fill="#FF9071" stroke="#242293" stroke-width="1.2" stroke-linecap="round" stroke-linejoin="round"/>
<path d="M286.37 203.624V216.434C286.35 217.454 285.83 218.434 284.83 219.014L247.2 240.744C244.91 242.064 242.09 242.064 239.79 240.744L202.16 219.014C201.13 218.424 200.62 217.384 200.62 216.344V203.534C200.62 204.574 201.13 205.614 202.16 206.204L239.79 227.934C242.09 229.254 244.91 229.254 247.2 227.934L284.83 206.204C285.83 205.624 286.35 204.644 286.37 203.624Z" fill="#FF3800" stroke="#242293" stroke-width="1.2" stroke-linecap="round" stroke-linejoin="round"/>
<path d="M220.793 202.818C221.266 202.819 221.713 202.926 222.031 203.108C222.348 203.29 222.395 203.461 222.395 203.531C222.395 203.602 222.345 203.776 222.026 203.962C221.71 204.142 221.266 204.247 220.794 204.247C220.321 204.247 219.874 204.142 219.558 203.96C219.241 203.779 219.195 203.607 219.195 203.538C219.195 203.466 219.243 203.293 219.562 203.106C219.876 202.922 220.321 202.817 220.793 202.818Z" fill="#223893" stroke="#242293"/>
<path d="M228.364 198.448C228.836 198.449 229.284 198.556 229.602 198.738C229.919 198.92 229.965 199.091 229.965 199.161C229.965 199.232 229.916 199.405 229.597 199.592C229.283 199.776 228.839 199.881 228.367 199.88C227.894 199.879 227.446 199.772 227.128 199.59C226.811 199.408 226.765 199.237 226.765 199.167C226.765 199.096 226.814 198.923 227.132 198.736C227.447 198.552 227.891 198.447 228.364 198.448Z" fill="#223893" stroke="#242293"/>
<path d="M235.933 194.078C236.406 194.079 236.853 194.186 237.17 194.368C237.488 194.55 237.535 194.721 237.535 194.791C237.534 194.862 237.486 195.035 237.167 195.222C236.852 195.406 236.409 195.511 235.936 195.51C235.463 195.509 235.015 195.402 234.698 195.22C234.38 195.038 234.334 194.867 234.334 194.797C234.335 194.726 234.383 194.553 234.702 194.366C235.016 194.182 235.46 194.077 235.933 194.078Z" fill="#223893" stroke="#242293"/>
<path d="M243.504 189.711C243.978 189.711 244.424 189.816 244.741 189.998C245.058 190.18 245.105 190.351 245.105 190.42C245.105 190.492 245.055 190.665 244.736 190.852C244.42 191.032 243.976 191.136 243.504 191.136C243.031 191.136 242.584 191.031 242.268 190.85C241.951 190.668 241.905 190.497 241.905 190.427C241.905 190.356 241.953 190.182 242.272 189.996L242.271 189.995C242.587 189.814 243.033 189.711 243.504 189.711Z" fill="#223893" stroke="#242293"/>
<path d="M228.364 207.188C228.836 207.189 229.284 207.296 229.602 207.478C229.919 207.66 229.965 207.831 229.965 207.901C229.965 207.972 229.916 208.146 229.597 208.333C229.283 208.516 228.839 208.622 228.367 208.621C227.894 208.62 227.446 208.513 227.128 208.331C226.811 208.149 226.765 207.977 226.765 207.908C226.765 207.836 226.814 207.663 227.132 207.476C227.447 207.292 227.891 207.187 228.364 207.188Z" fill="#223893" stroke="#242293"/>
<path d="M235.933 202.818C236.406 202.819 236.853 202.926 237.17 203.108C237.488 203.29 237.535 203.461 237.535 203.531C237.535 203.602 237.485 203.776 237.166 203.962C236.849 204.142 236.405 204.247 235.934 204.247C235.461 204.247 235.014 204.142 234.698 203.96C234.381 203.779 234.334 203.607 234.334 203.538C234.335 203.466 234.383 203.293 234.702 203.106C235.016 202.922 235.46 202.817 235.933 202.818Z" fill="#223893" stroke="#242293"/>
<path d="M243.503 198.448C243.976 198.449 244.423 198.556 244.741 198.738C245.058 198.92 245.105 199.091 245.105 199.161C245.105 199.232 245.056 199.405 244.737 199.592C244.423 199.776 243.979 199.881 243.506 199.88C243.034 199.879 242.586 199.772 242.268 199.59C241.951 199.408 241.905 199.237 241.905 199.167C241.905 199.096 241.953 198.923 242.272 198.736C242.586 198.552 243.031 198.447 243.503 198.448Z" fill="#223893" stroke="#242293"/>
<path d="M251.065 194.082C251.538 194.082 251.985 194.186 252.301 194.368C252.619 194.55 252.666 194.721 252.666 194.791C252.665 194.862 252.617 195.035 252.297 195.222C251.983 195.406 251.54 195.511 251.067 195.51C250.594 195.509 250.146 195.402 249.829 195.22C249.511 195.038 249.465 194.867 249.465 194.797C249.466 194.726 249.514 194.552 249.833 194.366L249.832 194.365C250.148 194.185 250.593 194.082 251.065 194.082Z" fill="#223893" stroke="#242293"/>
<path d="M235.933 211.558C236.406 211.559 236.853 211.666 237.17 211.848C237.488 212.03 237.535 212.201 237.535 212.271C237.535 212.342 237.486 212.515 237.167 212.702C236.852 212.886 236.409 212.991 235.936 212.99C235.463 212.989 235.015 212.882 234.698 212.7C234.381 212.518 234.334 212.347 234.334 212.277C234.335 212.206 234.383 212.032 234.702 211.846C235.016 211.662 235.46 211.557 235.933 211.558Z" fill="#223893" stroke="#242293"/>
<path d="M243.503 207.188C243.976 207.189 244.423 207.296 244.741 207.478C245.058 207.66 245.105 207.831 245.105 207.901C245.105 207.972 245.056 208.146 244.737 208.333C244.423 208.516 243.979 208.622 243.506 208.621C243.034 208.62 242.586 208.513 242.268 208.331C241.951 208.149 241.905 207.977 241.905 207.908C241.905 207.836 241.953 207.663 242.272 207.476C242.586 207.292 243.031 207.187 243.503 207.188Z" fill="#223893" stroke="#242293"/>
<path d="M251.064 202.818C251.536 202.819 251.984 202.926 252.301 203.108C252.619 203.29 252.666 203.461 252.666 203.531C252.665 203.602 252.617 203.776 252.297 203.962C251.983 204.146 251.54 204.252 251.067 204.25C250.594 204.249 250.146 204.143 249.829 203.96C249.511 203.779 249.465 203.607 249.465 203.538C249.465 203.466 249.514 203.293 249.833 203.106C250.147 202.922 250.591 202.817 251.064 202.818Z" fill="#223893" stroke="#242293"/>
<path d="M258.634 198.452C259.108 198.452 259.554 198.557 259.871 198.738C260.188 198.92 260.235 199.091 260.235 199.161C260.235 199.232 260.186 199.405 259.867 199.592C259.553 199.776 259.109 199.881 258.636 199.88C258.164 199.879 257.716 199.772 257.398 199.59C257.081 199.408 257.035 199.237 257.035 199.167C257.035 199.096 257.083 198.922 257.402 198.736L257.401 198.735C257.717 198.555 258.162 198.452 258.634 198.452Z" fill="#223893" stroke="#242293"/>
<path d="M243.504 215.921C243.978 215.921 244.424 216.026 244.741 216.208C245.058 216.389 245.105 216.561 245.105 216.63C245.105 216.702 245.056 216.875 244.737 217.062C244.423 217.246 243.979 217.351 243.506 217.35C243.034 217.349 242.586 217.242 242.268 217.06C241.951 216.878 241.905 216.707 241.905 216.637C241.905 216.566 241.953 216.392 242.272 216.206L242.271 216.205C242.587 216.024 243.033 215.921 243.504 215.921Z" fill="#223893" stroke="#242293"/>
<path d="M251.065 211.562C251.538 211.562 251.985 211.666 252.301 211.848C252.619 212.03 252.666 212.201 252.666 212.271C252.665 212.342 252.617 212.515 252.297 212.702C251.983 212.886 251.54 212.991 251.067 212.99C250.594 212.989 250.146 212.882 249.829 212.7C249.511 212.518 249.465 212.347 249.465 212.277C249.466 212.206 249.514 212.032 249.833 211.846L249.832 211.845C250.148 211.665 250.593 211.562 251.065 211.562Z" fill="#223893" stroke="#242293"/>
<path d="M258.633 207.188C259.106 207.189 259.553 207.296 259.871 207.478C260.188 207.66 260.235 207.831 260.235 207.901C260.235 207.972 260.186 208.146 259.867 208.333C259.553 208.516 259.109 208.622 258.636 208.621C258.164 208.62 257.716 208.513 257.398 208.331C257.081 208.149 257.035 207.977 257.035 207.908C257.035 207.836 257.083 207.663 257.402 207.476C257.716 207.292 258.16 207.187 258.633 207.188Z" fill="#223893" stroke="#242293"/>
<path d="M266.205 202.821C266.678 202.821 267.125 202.926 267.441 203.107C267.758 203.289 267.805 203.461 267.805 203.53C267.805 203.602 267.755 203.775 267.436 203.962C267.12 204.142 266.676 204.246 266.205 204.246C265.731 204.246 265.285 204.141 264.968 203.96C264.651 203.778 264.605 203.607 264.605 203.537C264.605 203.466 264.654 203.292 264.972 203.105L264.971 203.104C265.287 202.924 265.733 202.821 266.205 202.821Z" fill="#223893" stroke="#242293"/>
<path d="M335.75 198.354L251.77 149.884C246.66 146.914 240.37 146.914 235.23 149.884L151.25 198.354C148.95 199.684 147.82 202.004 147.82 204.324C147.82 206.444 148.76 208.564 150.68 209.934C150.86 210.054 151.05 210.174 151.25 210.284L157.61 213.974L157.87 214.124L159.87 215.264L167.06 219.414L235.23 258.784C240.37 261.724 246.66 261.724 251.77 258.784L319.94 219.414L327.13 215.264L329.13 214.114L329.39 213.974L335.75 210.284C335.94 210.164 336.13 210.044 336.3 209.934C338.16 208.614 339.14 206.614 339.17 204.524V204.104C339.13 201.854 337.97 199.654 335.74 198.354H335.75ZM328.42 206.364L325.84 207.864L323.61 209.134L322.23 209.924L248.23 252.664C246.79 253.484 245.17 253.924 243.51 253.924C241.85 253.924 240.2 253.484 238.75 252.654L164.76 209.944L163.41 209.154L161.14 207.844L158.58 206.374C158.3 206.214 158.06 205.984 157.87 205.754C157.07 204.684 157.3 203.034 158.58 202.304L238.76 156.024C240.21 155.174 241.85 154.744 243.51 154.744C245.17 154.744 246.78 155.184 248.21 156.014L328.42 202.294C329.69 203.034 329.93 204.684 329.13 205.754C328.94 205.994 328.71 206.214 328.42 206.374V206.364Z" fill="white" stroke="#242293" stroke-width="1.2" stroke-linecap="round" stroke-linejoin="round"/>
<path d="M329.13 205.744C328.94 205.984 328.71 206.204 328.42 206.364L325.84 207.864L323.61 209.134L322.23 209.924L248.21 167.214C246.78 166.374 245.16 165.944 243.51 165.944C241.86 165.944 240.21 166.384 238.76 167.224L164.76 209.934L163.41 209.144L161.14 207.834L158.58 206.364C158.3 206.204 158.06 205.974 157.87 205.744C157.07 204.674 157.3 203.024 158.58 202.294L238.76 156.014C240.21 155.164 241.85 154.734 243.51 154.734C245.17 154.734 246.78 155.174 248.21 156.004L328.42 202.284C329.69 203.024 329.93 204.674 329.13 205.744Z" fill="#E0E8F7" stroke="#242293" stroke-width="1.2" stroke-linecap="round" stroke-linejoin="round"/>
<path d="M339.17 204.524V215.734C339.13 218.024 337.97 220.194 335.74 221.494L329.38 225.184L327.12 226.484L319.93 230.634L251.76 270.004C246.65 272.944 240.36 272.944 235.22 270.004L167.05 230.634L159.86 226.484L157.6 225.184L151.24 221.494C148.94 220.174 147.81 217.854 147.81 215.534V204.324C147.81 206.444 148.75 208.564 150.67 209.934C150.85 210.054 151.04 210.174 151.24 210.284L157.6 213.974L157.86 214.124L159.86 215.264L167.05 219.414L235.22 258.784C240.36 261.724 246.65 261.724 251.76 258.784L319.93 219.414L327.12 215.264L329.12 214.114L329.38 213.974L335.74 210.284C335.93 210.164 336.12 210.044 336.29 209.934C338.15 208.614 339.13 206.614 339.16 204.524H339.17Z" fill="#E0E8F7" stroke="#242293" stroke-width="1.2" stroke-linecap="round" stroke-linejoin="round"/>
<path d="M463.47 209.554L429.98 228.894" stroke="#242293" stroke-width="1.2" stroke-linecap="round" stroke-linejoin="round"/>
<path d="M220.8 320.094L187.09 300.624V287.554V274.054L214.35 257.944" stroke="#242293" stroke-width="1.2" stroke-linecap="round" stroke-linejoin="round"/>
<path d="M521.7 231.294L481.71 254.374C479.56 255.614 476.91 255.624 474.75 254.394L405.26 214.804V175.904L377.77 160.034" stroke="#242293" stroke-width="1.2" stroke-linecap="round" stroke-linejoin="round"/>
<path d="M214.75 305.504C214.75 305.974 214.84 306.444 215.01 306.914C215.46 308.094 216.47 309.204 218.05 310.124C222.46 312.674 229.61 312.674 234.02 310.124C235.6 309.214 236.62 308.094 237.06 306.914C237.24 306.454 237.32 305.984 237.32 305.504C237.32 303.834 236.22 302.164 234.01 300.894C229.6 298.344 222.45 298.344 218.04 300.894C215.83 302.164 214.73 303.834 214.73 305.504H214.75Z" fill="white" stroke="#242293" stroke-width="1.2" stroke-linecap="round" stroke-linejoin="round"/>
<path d="M214.75 305.504V323.324C214.75 324.994 215.85 326.664 218.06 327.934C222.47 330.484 229.62 330.484 234.03 327.934C236.24 326.664 237.34 324.994 237.34 323.324V305.504C237.34 305.974 237.25 306.444 237.08 306.914C236.63 308.094 235.62 309.204 234.04 310.124C229.63 312.674 222.48 312.674 218.07 310.124C216.49 309.214 215.47 308.094 215.03 306.914C214.85 306.454 214.77 305.984 214.77 305.504H214.75Z" fill="#E0E8F7" stroke="#242293" stroke-width="1.2" stroke-linecap="round" stroke-linejoin="round"/>
<path d="M214.75 331.004V323.324" stroke="#242293" stroke-width="1.2" stroke-linecap="round" stroke-linejoin="round"/>
<path d="M219.65 335.265V328.705" stroke="#242293" stroke-width="1.2" stroke-linecap="round" stroke-linejoin="round"/>
<path d="M232.44 335.265V328.705" stroke="#242293" stroke-width="1.2" stroke-linecap="round" stroke-linejoin="round"/>
<path d="M226.05 336.404V329.844" stroke="#242293" stroke-width="1.2" stroke-linecap="round" stroke-linejoin="round"/>
<path d="M237.34 331.004V323.324" stroke="#242293" stroke-width="1.2" stroke-linecap="round" stroke-linejoin="round"/>
<path d="M275.08 339.634C275.08 340.104 275.17 340.574 275.34 341.044C275.79 342.224 276.8 343.334 278.38 344.254C282.79 346.804 289.94 346.804 294.35 344.254C295.93 343.344 296.95 342.224 297.39 341.044C297.57 340.584 297.65 340.114 297.65 339.634C297.65 337.964 296.55 336.294 294.34 335.024C289.93 332.474 282.78 332.474 278.37 335.024C276.16 336.294 275.06 337.964 275.06 339.634H275.08Z" fill="white" stroke="#242293" stroke-width="1.2" stroke-linecap="round" stroke-linejoin="round"/>
<path d="M275.081 339.634V357.454C275.081 359.124 276.181 360.794 278.391 362.064C282.801 364.614 289.951 364.614 294.361 362.064C296.571 360.794 297.671 359.124 297.671 357.454V339.634C297.671 340.104 297.581 340.574 297.411 341.044C296.961 342.224 295.95 343.334 294.37 344.254C289.96 346.804 282.811 346.804 278.401 344.254C276.821 343.344 275.801 342.224 275.361 341.044C275.181 340.584 275.101 340.114 275.101 339.634H275.081Z" fill="#E0E8F7" stroke="#242293" stroke-width="1.2" stroke-linecap="round" stroke-linejoin="round"/>
<path d="M275.081 365.134V357.454" stroke="#242293" stroke-width="1.2" stroke-linecap="round" stroke-linejoin="round"/>
<path d="M279.98 369.395V362.834" stroke="#242293" stroke-width="1.2" stroke-linecap="round" stroke-linejoin="round"/>
<path d="M292.77 369.395V362.834" stroke="#242293" stroke-width="1.2" stroke-linecap="round" stroke-linejoin="round"/>
<path d="M286.37 370.544V363.974" stroke="#242293" stroke-width="1.2" stroke-linecap="round" stroke-linejoin="round"/>
<path d="M297.67 365.134V357.454" stroke="#242293" stroke-width="1.2" stroke-linecap="round" stroke-linejoin="round"/>
<path d="M245.45 323.064C245.45 323.534 245.54 324.004 245.71 324.474C246.16 325.654 247.17 326.764 248.75 327.684C253.16 330.234 260.31 330.234 264.72 327.684C266.3 326.774 267.32 325.654 267.76 324.474C267.94 324.014 268.02 323.544 268.02 323.064C268.02 321.394 266.92 319.724 264.71 318.454C260.3 315.904 253.15 315.904 248.74 318.454C246.53 319.724 245.43 321.394 245.43 323.064H245.45Z" fill="#FF9071" stroke="#242293" stroke-width="1.2" stroke-linecap="round" stroke-linejoin="round"/>
<path d="M245.45 323.064V340.884C245.45 342.554 246.55 344.224 248.76 345.494C253.17 348.044 260.32 348.044 264.73 345.494C266.94 344.224 268.04 342.554 268.04 340.884V323.064C268.04 323.534 267.95 324.004 267.78 324.474C267.33 325.654 266.32 326.764 264.74 327.684C260.33 330.234 253.18 330.234 248.77 327.684C247.19 326.774 246.17 325.654 245.73 324.474C245.55 324.014 245.47 323.544 245.47 323.064H245.45Z" fill="#FF3800" stroke="#242293" stroke-width="1.2" stroke-miterlimit="10"/>
<path d="M245.45 348.574V340.894" stroke="#242293" stroke-width="1.2" stroke-linecap="round" stroke-linejoin="round"/>
<path d="M250.35 352.824V346.264" stroke="#242293" stroke-width="1.2" stroke-linecap="round" stroke-linejoin="round"/>
<path d="M263.14 352.824V346.264" stroke="#242293" stroke-width="1.2" stroke-linecap="round" stroke-linejoin="round"/>
<path d="M256.74 353.974V347.414" stroke="#242293" stroke-width="1.2" stroke-linecap="round" stroke-linejoin="round"/>
<path d="M268.041 348.574V340.894" stroke="#242293" stroke-width="1.2" stroke-linecap="round" stroke-linejoin="round"/>
<path d="M123.31 219.414L118.85 219.114L88.1198 217.044L73.8898 208.834L63.0698 202.594C77.7998 196.124 98.8898 196.774 112.33 204.534C119.46 208.654 123.12 214.024 123.31 219.424V219.414Z" fill="#FF9071" stroke="#242293" stroke-width="1.2" stroke-linecap="round" stroke-linejoin="round"/>
<path d="M118.861 219.114L88.1305 217.044L73.9005 208.834L63.0806 202.594V212.124L88.1305 226.584L123.311 228.944V219.414L118.861 219.114Z" fill="#FF3800" stroke="#242293" stroke-width="1.2" stroke-linecap="round" stroke-linejoin="round"/>
<path d="M122.15 225.284C120.7 228.534 117.94 231.624 113.85 234.274C113.37 234.594 112.86 234.904 112.34 235.204C104.36 239.794 93.7003 241.894 83.2703 241.504C81.2703 241.434 79.2803 241.254 77.3003 241.004L89.1302 223.074L122.14 225.294L122.15 225.284Z" fill="white" stroke="#242293" stroke-width="1.2" stroke-linecap="round" stroke-linejoin="round"/>
<path d="M79.8002 220.604L75.2501 227.504L67.7302 238.884C64.6802 237.924 61.8002 236.704 59.2202 235.204C54.0002 232.194 50.6401 228.524 49.1301 224.644C48.5201 223.084 48.2202 221.474 48.2202 219.874C48.2202 215.244 50.7602 210.634 55.8502 206.764L79.8102 220.604H79.8002Z" fill="#FF9071" stroke="#242293" stroke-width="1.2" stroke-linecap="round" stroke-linejoin="round"/>
<path d="M122.15 225.284V234.824C120.53 238.454 117.27 241.894 112.34 244.734C102.83 250.224 89.5101 252.154 77.3101 250.524V240.994C79.2801 241.254 81.27 241.424 83.28 241.494C93.71 241.894 104.37 239.794 112.35 235.194C112.87 234.894 113.38 234.584 113.86 234.264C117.95 231.614 120.71 228.524 122.16 225.274L122.15 225.284Z" fill="#E0E8F7" stroke="#242293" stroke-width="1.2" stroke-linecap="round" stroke-linejoin="round"/>
<path d="M79.7999 220.604V230.134L67.73 248.414V238.884L75.2499 227.504L79.7999 220.604Z" fill="#FF3800" stroke="#242293" stroke-width="1.2" stroke-linecap="round" stroke-linejoin="round"/>
<path d="M67.7302 238.884V248.414C64.6802 247.454 61.8002 246.234 59.2202 244.734C51.8802 240.504 48.2202 234.954 48.2202 229.404V219.874C48.2202 221.474 48.5201 223.074 49.1301 224.644C50.6401 228.524 54.0002 232.194 59.2202 235.204C61.8002 236.704 64.6802 237.924 67.7302 238.884Z" fill="#FF3800" stroke="#242293" stroke-width="1.2" stroke-linecap="round" stroke-linejoin="round"/>
<path d="M154.9 302.209C155.586 302.209 156.244 302.361 156.719 302.637C157.198 302.914 157.325 303.208 157.325 303.399C157.325 303.591 157.198 303.884 156.719 304.161C156.244 304.436 155.586 304.589 154.9 304.589C154.214 304.589 153.556 304.436 153.081 304.161C152.602 303.884 152.475 303.591 152.475 303.399C152.475 303.208 152.602 302.914 153.081 302.637C153.556 302.361 154.214 302.209 154.9 302.209Z" fill="#223893" stroke="#242293"/>
<path d="M165.44 308.299C166.126 308.299 166.784 308.451 167.259 308.727C167.738 309.004 167.865 309.298 167.865 309.489C167.865 309.681 167.738 309.974 167.259 310.251C166.784 310.526 166.126 310.679 165.44 310.679C164.754 310.679 164.096 310.526 163.621 310.251C163.142 309.974 163.015 309.681 163.015 309.489C163.015 309.298 163.142 309.004 163.621 308.727C164.096 308.451 164.754 308.299 165.44 308.299Z" fill="#223893" stroke="#242293"/>
<path d="M175.98 314.379C176.666 314.379 177.324 314.531 177.799 314.807C178.278 315.084 178.405 315.378 178.405 315.569C178.405 315.761 178.278 316.054 177.799 316.331C177.324 316.606 176.666 316.759 175.98 316.759C175.294 316.759 174.636 316.606 174.161 316.331C173.682 316.054 173.555 315.761 173.555 315.569C173.555 315.378 173.682 315.084 174.161 314.807C174.636 314.531 175.294 314.379 175.98 314.379Z" fill="#223893" stroke="#242293"/>
<path d="M364.36 204.409C365.046 204.409 365.704 204.562 366.179 204.837C366.658 205.114 366.785 205.408 366.785 205.6C366.784 205.791 366.657 206.084 366.179 206.361C365.704 206.637 365.046 206.789 364.36 206.789C363.674 206.789 363.016 206.637 362.541 206.361C362.062 206.084 361.935 205.791 361.935 205.6C361.935 205.408 362.062 205.114 362.541 204.837C363.016 204.562 363.674 204.409 364.36 204.409Z" fill="#223893" stroke="#242293"/>
<path d="M374.89 198.329C375.576 198.329 376.234 198.482 376.709 198.757C377.188 199.034 377.315 199.328 377.315 199.52C377.315 199.711 377.188 200.004 376.709 200.281C376.234 200.557 375.576 200.709 374.89 200.709C374.204 200.709 373.546 200.557 373.071 200.281C372.593 200.004 372.466 199.711 372.465 199.52C372.465 199.328 372.592 199.034 373.071 198.757C373.546 198.481 374.204 198.329 374.89 198.329Z" fill="#223893" stroke="#242293"/>
<path d="M385.43 192.239C386.116 192.239 386.774 192.392 387.25 192.667C387.728 192.944 387.855 193.238 387.855 193.43C387.855 193.621 387.728 193.915 387.25 194.191C386.774 194.467 386.116 194.619 385.43 194.619C384.744 194.619 384.086 194.467 383.611 194.191C383.133 193.915 383.006 193.621 383.005 193.43C383.005 193.238 383.132 192.944 383.611 192.667C384.086 192.392 384.744 192.239 385.43 192.239Z" fill="#223893" stroke="#242293"/>
<path d="M112.78 175.059C113.465 175.059 114.124 175.212 114.599 175.487C115.078 175.764 115.205 176.058 115.205 176.25C115.204 176.441 115.077 176.734 114.599 177.011C114.124 177.287 113.466 177.439 112.78 177.439C112.094 177.439 111.436 177.287 110.96 177.011C110.482 176.734 110.355 176.441 110.355 176.25C110.355 176.058 110.482 175.764 110.96 175.487C111.436 175.211 112.094 175.059 112.78 175.059Z" fill="#223893" stroke="#242293"/>
<path d="M123.31 181.139C123.996 181.139 124.654 181.292 125.129 181.567C125.608 181.844 125.735 182.138 125.735 182.33C125.735 182.521 125.608 182.814 125.129 183.091C124.654 183.367 123.996 183.519 123.31 183.519C122.624 183.519 121.966 183.367 121.491 183.091C121.013 182.814 120.885 182.521 120.885 182.33C120.885 182.138 121.012 181.844 121.491 181.567C121.966 181.292 122.624 181.139 123.31 181.139Z" fill="#223893" stroke="#242293"/>
<path d="M133.85 187.219C134.536 187.219 135.194 187.372 135.669 187.647C136.148 187.924 136.275 188.218 136.275 188.41C136.275 188.601 136.148 188.894 135.669 189.171C135.194 189.447 134.536 189.599 133.85 189.599C133.164 189.599 132.506 189.447 132.031 189.171C131.553 188.895 131.425 188.601 131.425 188.41C131.425 188.218 131.552 187.924 132.031 187.647C132.506 187.372 133.164 187.219 133.85 187.219Z" fill="#223893" stroke="#242293"/>
<path d="M399.4 252.564C399.4 253.114 399.06 253.654 398.37 254.054L395.91 255.484L384.51 262.064C383 262.944 380.35 262.834 378.6 261.814L356.12 248.844L354.08 247.664C353.16 247.134 352.67 246.464 352.64 245.814V245.624C352.68 245.104 353.01 244.614 353.66 244.244L367.53 236.234C369.04 235.364 371.7 235.474 373.44 236.484L397.96 250.644C398.92 251.194 399.41 251.904 399.41 252.574L399.4 252.564Z" fill="#FF9071" stroke="#242293" stroke-width="1.2" stroke-linecap="round" stroke-linejoin="round"/>
<path d="M399.4 252.564V258.584C399.4 259.134 399.06 259.674 398.37 260.074L384.5 268.074C382.99 268.954 380.34 268.844 378.59 267.824L354.07 253.674C353.15 253.144 352.66 252.474 352.63 251.824V245.804C352.66 246.454 353.15 247.124 354.07 247.654L356.11 248.834L378.59 261.804C380.34 262.814 382.99 262.934 384.5 262.054L395.9 255.474L398.36 254.044C399.05 253.644 399.39 253.104 399.39 252.554L399.4 252.564Z" fill="#FF3800" stroke="#242293" stroke-width="1.2" stroke-linecap="round" stroke-linejoin="round"/>
<path d="M366.27 271.764C366.27 272.314 365.93 272.854 365.24 273.254L362.78 274.684L351.38 281.264C349.87 282.144 347.22 282.034 345.47 281.014L322.99 268.044L320.95 266.864C320.03 266.334 319.54 265.664 319.51 265.014V264.824C319.55 264.304 319.88 263.814 320.53 263.444L334.4 255.434C335.91 254.564 338.57 254.674 340.31 255.684L364.83 269.844C365.79 270.394 366.28 271.104 366.28 271.774L366.27 271.764Z" fill="#FF9071" stroke="#242293" stroke-width="1.2" stroke-linecap="round" stroke-linejoin="round"/>
<path d="M366.271 271.764V277.784C366.271 278.334 365.93 278.874 365.24 279.274L351.37 287.274C349.86 288.154 347.211 288.044 345.461 287.024L320.941 272.874C320.021 272.344 319.53 271.674 319.5 271.024V265.004C319.53 265.654 320.021 266.324 320.941 266.854L322.981 268.034L345.461 281.004C347.211 282.014 349.86 282.134 351.37 281.254L362.771 274.674L365.231 273.244C365.921 272.844 366.26 272.304 366.26 271.754L366.271 271.764Z" fill="#FF3800" stroke="#242293" stroke-width="1.2" stroke-linecap="round" stroke-linejoin="round"/>
<path d="M333.15 290.964C333.15 291.514 332.81 292.054 332.12 292.454L329.66 293.884L318.26 300.464C316.75 301.344 314.1 301.234 312.35 300.214L289.87 287.244L287.83 286.064C286.91 285.534 286.42 284.864 286.39 284.214V284.024C286.43 283.504 286.76 283.014 287.41 282.644L301.28 274.634C302.79 273.764 305.45 273.874 307.19 274.884L331.71 289.044C332.67 289.594 333.16 290.304 333.16 290.974L333.15 290.964Z" fill="#FF9071" stroke="#242293" stroke-width="1.2" stroke-linecap="round" stroke-linejoin="round"/>
<path d="M333.15 290.964V296.984C333.15 297.534 332.81 298.074 332.12 298.474L318.25 306.474C316.74 307.354 314.09 307.244 312.34 306.224L287.82 292.074C286.9 291.544 286.41 290.874 286.38 290.224V284.204C286.41 284.854 286.9 285.524 287.82 286.054L289.86 287.234L312.34 300.204C314.09 301.214 316.74 301.334 318.25 300.454L329.65 293.874L332.11 292.444C332.8 292.044 333.14 291.504 333.14 290.954L333.15 290.964Z" fill="#FF3800" stroke="#242293" stroke-width="1.2" stroke-linecap="round" stroke-linejoin="round"/>
<path d="M427.8 274.594L344.09 322.914" stroke="#242293" stroke-width="1.2" stroke-linecap="round" stroke-linejoin="round"/>
<path d="M446.179 278.014C446.179 278.564 445.839 279.104 445.149 279.504L442.689 280.934L431.289 287.514C429.779 288.394 427.129 288.284 425.379 287.264L402.899 274.294L400.859 273.114C399.939 272.584 399.449 271.914 399.419 271.264V271.074C399.459 270.554 399.789 270.064 400.439 269.694L414.309 261.684C415.819 260.814 418.479 260.924 420.219 261.934L444.739 276.094C445.699 276.644 446.189 277.354 446.189 278.024L446.179 278.014Z" fill="#FF9071" stroke="#242293" stroke-width="1.2" stroke-linecap="round" stroke-linejoin="round"/>
<path d="M446.18 278.014V284.034C446.18 284.584 445.84 285.124 445.15 285.524L431.28 293.524C429.77 294.404 427.12 294.294 425.37 293.274L400.85 279.124C399.93 278.594 399.44 277.924 399.41 277.274V271.254C399.44 271.904 399.93 272.574 400.85 273.104L402.89 274.284L425.37 287.254C427.12 288.264 429.77 288.384 431.28 287.504L442.68 280.924L445.14 279.494C445.83 279.094 446.17 278.554 446.17 278.004L446.18 278.014Z" fill="#FF3800" stroke="#242293" stroke-width="1.2" stroke-linecap="round" stroke-linejoin="round"/>
<path d="M413.05 297.214C413.05 297.764 412.71 298.304 412.02 298.704L409.56 300.134L398.16 306.714C396.65 307.594 394 307.484 392.25 306.464L369.77 293.494L367.73 292.314C366.81 291.784 366.32 291.114 366.29 290.464V290.274C366.33 289.754 366.66 289.264 367.31 288.894L381.18 280.884C382.69 280.014 385.35 280.124 387.09 281.134L411.61 295.294C412.57 295.844 413.06 296.554 413.06 297.224L413.05 297.214Z" fill="#FF9071" stroke="#242293" stroke-width="1.2" stroke-linecap="round" stroke-linejoin="round"/>
<path d="M413.05 297.214V303.234C413.05 303.784 412.71 304.324 412.02 304.724L398.15 312.724C396.64 313.604 393.99 313.494 392.24 312.474L367.72 298.324C366.8 297.794 366.31 297.124 366.28 296.474V290.454C366.31 291.104 366.8 291.774 367.72 292.304L369.76 293.484L392.24 306.454C393.99 307.464 396.64 307.584 398.15 306.704L409.55 300.124L412.01 298.694C412.7 298.294 413.04 297.754 413.04 297.204L413.05 297.214Z" fill="#FF3800" stroke="#242293" stroke-width="1.2" stroke-linecap="round" stroke-linejoin="round"/>
<path d="M379.92 316.414C379.92 316.964 379.58 317.504 378.89 317.904L376.43 319.334L365.03 325.914C363.52 326.794 360.87 326.684 359.12 325.664L336.64 312.694L334.6 311.514C333.68 310.984 333.19 310.314 333.16 309.664V309.474C333.2 308.954 333.53 308.464 334.18 308.094L348.05 300.084C349.56 299.214 352.22 299.324 353.96 300.334L378.48 314.494C379.44 315.044 379.93 315.754 379.93 316.424L379.92 316.414Z" fill="#FF9071" stroke="#242293" stroke-width="1.2" stroke-linecap="round" stroke-linejoin="round"/>
<path d="M379.92 316.414V322.434C379.92 322.984 379.58 323.524 378.89 323.924L365.02 331.924C363.51 332.804 360.86 332.694 359.11 331.674L334.59 317.524C333.67 316.994 333.18 316.324 333.15 315.674V309.654C333.18 310.304 333.67 310.974 334.59 311.504L336.63 312.684L359.11 325.654C360.86 326.664 363.51 326.784 365.02 325.904L376.42 319.324L378.88 317.894C379.57 317.494 379.91 316.954 379.91 316.404L379.92 316.414Z" fill="#FF3800" stroke="#242293" stroke-width="1.2" stroke-linecap="round" stroke-linejoin="round"/>
<path d="M345.17 350.514L333.17 357.434" stroke="#242293" stroke-width="1.2" stroke-linecap="round" stroke-linejoin="round"/>
<path d="M345.17 357.434L333.17 350.514" stroke="#242293" stroke-width="1.2" stroke-linecap="round" stroke-linejoin="round"/>
<path d="M478.71 271.134L466.71 278.054" stroke="#242293" stroke-width="1.2" stroke-linecap="round" stroke-linejoin="round"/>
<path d="M478.71 278.054L466.71 271.134" stroke="#242293" stroke-width="1.2" stroke-linecap="round" stroke-linejoin="round"/>
<path d="M437.34 159.714L425.34 166.644" stroke="#242293" stroke-width="1.2" stroke-linecap="round" stroke-linejoin="round"/>
<path d="M437.34 166.644L425.34 159.714" stroke="#242293" stroke-width="1.2" stroke-linecap="round" stroke-linejoin="round"/>
<path d="M264.63 291.904L252.63 298.834" stroke="#242293" stroke-width="1.2" stroke-linecap="round" stroke-linejoin="round"/>
<path d="M264.63 298.834L252.63 291.904" stroke="#242293" stroke-width="1.2" stroke-linecap="round" stroke-linejoin="round"/>
<path d="M318.18 253.134C318.18 253.364 318.14 253.604 318.05 253.834C317.83 254.424 317.32 254.974 316.53 255.434C314.33 256.704 310.77 256.704 308.57 255.434C307.78 254.984 307.28 254.424 307.05 253.834C306.96 253.604 306.92 253.364 306.92 253.134C306.92 252.304 307.47 251.474 308.57 250.834C310.77 249.564 314.33 249.564 316.53 250.834C317.63 251.464 318.18 252.304 318.18 253.134Z" fill="white" stroke="#242293" stroke-width="1.2" stroke-linecap="round" stroke-linejoin="round"/>
<path d="M410.66 176.294C410.66 176.524 410.62 176.764 410.53 176.994C410.31 177.584 409.8 178.134 409.01 178.594C406.81 179.864 403.25 179.864 401.05 178.594C400.26 178.144 399.76 177.584 399.53 176.994C399.44 176.764 399.4 176.524 399.4 176.294C399.4 175.464 399.95 174.634 401.05 173.994C403.25 172.724 406.81 172.724 409.01 173.994C410.11 174.624 410.66 175.464 410.66 176.294Z" fill="white" stroke="#242293" stroke-width="1.2" stroke-linecap="round" stroke-linejoin="round"/>
<path d="M410.66 214.814C410.66 215.044 410.62 215.284 410.53 215.514C410.31 216.104 409.8 216.654 409.01 217.114C406.81 218.384 403.25 218.384 401.05 217.114C400.26 216.664 399.76 216.104 399.53 215.514C399.44 215.284 399.4 215.044 399.4 214.814C399.4 213.984 399.95 213.154 401.05 212.514C403.25 211.244 406.81 211.244 409.01 212.514C410.11 213.144 410.66 213.984 410.66 214.814Z" fill="white" stroke="#242293" stroke-width="1.2" stroke-linecap="round" stroke-linejoin="round"/>
<path d="M435.61 228.894C435.61 229.124 435.57 229.364 435.48 229.594C435.26 230.184 434.75 230.734 433.96 231.194C431.76 232.464 428.2 232.464 426 231.194C425.21 230.744 424.71 230.184 424.48 229.594C424.39 229.364 424.35 229.124 424.35 228.894C424.35 228.064 424.9 227.234 426 226.594C428.2 225.324 431.76 225.324 433.96 226.594C435.06 227.224 435.61 228.064 435.61 228.894Z" fill="white" stroke="#242293" stroke-width="1.2" stroke-linecap="round" stroke-linejoin="round"/>
<path d="M192.71 287.554C192.71 287.784 192.67 288.024 192.58 288.254C192.36 288.844 191.85 289.394 191.06 289.854C188.86 291.124 185.3 291.124 183.1 289.854C182.31 289.404 181.81 288.844 181.58 288.254C181.49 288.024 181.45 287.784 181.45 287.554C181.45 286.724 182 285.894 183.1 285.254C185.3 283.984 188.86 283.984 191.06 285.254C192.16 285.884 192.71 286.724 192.71 287.554Z" fill="white" stroke="#242293" stroke-width="1.2" stroke-linecap="round" stroke-linejoin="round"/>
<path d="M406.26 136.824V147.204C406.26 148.374 405.68 149.534 404.53 150.194L355 178.784C351.79 180.644 347.83 180.644 344.62 178.784L295.09 150.194C293.93 149.524 293.36 148.374 293.36 147.204V136.824C293.36 137.994 293.93 139.154 295.09 139.814L344.62 168.404C347.83 170.264 351.79 170.264 355 168.404L404.53 139.814C405.69 139.144 406.26 137.984 406.26 136.824Z" fill="#E0E8F7" stroke="#242293" stroke-width="1.2" stroke-linecap="round" stroke-linejoin="round"/>
<path d="M406.26 136.824C406.26 137.984 405.69 139.154 404.53 139.814L355 168.404C351.79 170.264 347.83 170.264 344.62 168.404L295.09 139.814C293.93 139.144 293.36 137.994 293.36 136.824C293.36 135.654 293.93 134.494 295.09 133.824L344.62 105.234C347.83 103.384 351.79 103.384 355 105.234L404.53 133.834C405.69 134.504 406.26 135.654 406.26 136.824Z" fill="white" stroke="#242293" stroke-width="1.2" stroke-linecap="round" stroke-linejoin="round"/>
<path d="M343.17 154.914L318.49 140.664L319.52 132.394L342.15 119.324L356.47 118.734L381.15 132.984L380.13 141.254L357.5 154.324L343.17 154.914Z" fill="#E0E8F7" stroke="#242293" stroke-width="1.2" stroke-linecap="round" stroke-linejoin="round"/>
<path d="M345.57 148.404L329.77 139.274L330.43 133.984L344.91 125.624L354.07 125.244L369.87 134.364L369.22 139.654L354.73 148.024L345.57 148.404Z" fill="white" stroke="#242293" stroke-width="1.2" stroke-linecap="round" stroke-linejoin="round"/>
<path d="M347.959 141.884L341.049 137.894L341.339 135.584L347.669 131.924L351.679 131.754L358.589 135.744L358.299 138.064L351.969 141.724L347.959 141.884Z" fill="#E0E8F7" stroke="#242293" stroke-width="1.2" stroke-linecap="round" stroke-linejoin="round"/>
<path d="M218.06 121.714V114.324C218.06 112.694 219.2 112.034 220.61 112.854L235.99 121.734C237.4 122.544 238.54 124.524 238.54 126.154V133.544" stroke="#242293" stroke-width="1.2" stroke-linecap="round" stroke-linejoin="round"/>
<path d="M225.02 117.704V110.314C225.02 108.684 226.16 108.024 227.57 108.844L242.95 117.724C244.36 118.534 245.5 120.514 245.5 122.144V129.534" stroke="#242293" stroke-width="1.2" stroke-linecap="round" stroke-linejoin="round"/>
<path d="M231.99 113.684V106.294C231.99 104.664 233.13 104.004 234.54 104.824L249.92 113.704C251.33 114.514 252.47 116.494 252.47 118.124V125.514" stroke="#242293" stroke-width="1.2" stroke-linecap="round" stroke-linejoin="round"/>
<path d="M238.96 109.674V102.284C238.96 100.654 240.1 99.9944 241.51 100.814L256.89 109.694C258.3 110.504 259.44 112.484 259.44 114.114V121.504" stroke="#242293" stroke-width="1.2" stroke-linecap="round" stroke-linejoin="round"/>
<path d="M245.93 105.654V98.2644C245.93 96.6344 247.07 95.9743 248.48 96.7943L263.86 105.674C265.27 106.484 266.41 108.464 266.41 110.094V117.484" stroke="#242293" stroke-width="1.2" stroke-linecap="round" stroke-linejoin="round"/>
<path d="M252.9 101.634V94.2443C252.9 92.6143 254.04 91.9543 255.45 92.7743L270.83 101.654C272.24 102.464 273.38 104.444 273.38 106.074V113.464" stroke="#242293" stroke-width="1.2" stroke-linecap="round" stroke-linejoin="round"/>
<path d="M259.86 97.6241V90.234C259.86 88.604 261 87.9441 262.41 88.7641L277.79 97.6441C279.2 98.4541 280.34 100.434 280.34 102.064V109.454" stroke="#242293" stroke-width="1.2" stroke-linecap="round" stroke-linejoin="round"/>
<path d="M266.831 93.6045V86.2145C266.831 84.5845 267.97 83.9245 269.38 84.7445L284.76 93.6245C286.17 94.4345 287.311 96.4145 287.311 98.0445V105.434" stroke="#242293" stroke-width="1.2" stroke-linecap="round" stroke-linejoin="round"/>
<path d="M273.8 89.584V82.194C273.8 80.564 274.94 79.904 276.35 80.724L291.73 89.604C293.14 90.414 294.28 92.3941 294.28 94.0241V101.414" stroke="#242293" stroke-width="1.2" stroke-linecap="round" stroke-linejoin="round"/>
<path d="M280.77 85.5743V78.1842C280.77 76.5542 281.91 75.8943 283.32 76.7143L298.7 85.5943C300.11 86.4043 301.25 88.3843 301.25 90.0143V97.4042" stroke="#242293" stroke-width="1.2" stroke-linecap="round" stroke-linejoin="round"/>
<path d="M287.73 81.5542V74.1642C287.73 72.5342 288.87 71.8742 290.28 72.6942L305.66 81.5743C307.07 82.3843 308.21 84.3643 308.21 85.9943V93.3843" stroke="#242293" stroke-width="1.2" stroke-linecap="round" stroke-linejoin="round"/>
<path d="M478.76 192.974L469.31 187.514C467.69 186.584 465.7 186.584 464.08 187.514L454.63 192.974H438.27V207.784C438.27 208.374 438.56 208.954 439.14 209.294L464.08 223.694C465.7 224.624 467.69 224.624 469.31 223.694L494.25 209.294C494.83 208.954 495.12 208.374 495.12 207.784V192.974H478.76Z" fill="#E0E8F7" stroke="#242293" stroke-width="1.2" stroke-linecap="round" stroke-linejoin="round"/>
<path d="M464.08 208.884L439.14 194.484C437.98 193.814 437.98 192.134 439.14 191.464L464.08 177.064C465.7 176.134 467.69 176.134 469.31 177.064L494.25 191.464C495.41 192.134 495.41 193.814 494.25 194.484L469.31 208.884C467.69 209.814 465.7 209.814 464.08 208.884Z" fill="white" stroke="#242293" stroke-width="1.2" stroke-linecap="round" stroke-linejoin="round"/>
<path d="M472.71 189.494L460.67 196.444" stroke="#242293" stroke-width="1.2" stroke-linecap="round" stroke-linejoin="round"/>
<path d="M469.22 196.444H460.67V191.514" stroke="#242293" stroke-width="1.2" stroke-linecap="round" stroke-linejoin="round"/>
<path d="M527.74 220.974L518.291 215.514C516.671 214.584 514.681 214.584 513.061 215.514L503.611 220.974H487.25V235.784C487.25 236.374 487.54 236.954 488.12 237.294L513.061 251.694C514.681 252.624 516.671 252.624 518.291 251.694L543.23 237.294C543.81 236.954 544.101 236.374 544.101 235.784V220.974H527.74Z" fill="#E0E8F7" stroke="#242293" stroke-width="1.2" stroke-linecap="round" stroke-linejoin="round"/>
<path d="M513.061 236.874L488.12 222.474C486.96 221.804 486.96 220.124 488.12 219.454L513.061 205.054C514.681 204.124 516.671 204.124 518.291 205.054L543.23 219.454C544.39 220.124 544.39 221.804 543.23 222.474L518.291 236.874C516.671 237.804 514.681 237.804 513.061 236.874Z" fill="white" stroke="#242293" stroke-width="1.2" stroke-linecap="round" stroke-linejoin="round"/>
<path d="M509.661 224.444L521.7 217.494" stroke="#242293" stroke-width="1.2" stroke-linecap="round" stroke-linejoin="round"/>
<path d="M513.151 217.494H521.701V222.434" stroke="#242293" stroke-width="1.2" stroke-linecap="round" stroke-linejoin="round"/>
</svg>
