<svg width="42" height="48" viewBox="0 0 42 48" fill="none" xmlns="http://www.w3.org/2000/svg">
<g filter="url(#filter0_d_184_3116)">
<path d="M14.5892 11.3357H26.5065L30.2809 4.36767C30.4023 4.14349 30.4492 3.88649 30.4149 3.63387C30.3806 3.38124 30.2668 3.14609 30.0899 2.96244C29.9131 2.77879 29.6824 2.65617 29.4313 2.61232C29.1801 2.56847 28.9215 2.60567 28.6929 2.71854C25.9919 4.05216 23.6299 3.48304 20.895 2.8244C18.1904 2.17296 15.1254 1.43464 11.4866 2.65688C11.3205 2.71267 11.1687 2.80412 11.0417 2.9248C10.9147 3.04549 10.8156 3.1925 10.7515 3.35552C10.6873 3.51854 10.6595 3.69362 10.6702 3.86849C10.6808 4.04337 10.7296 4.21379 10.8131 4.36783L14.5892 11.3357Z" fill="white"/>
</g>
<g filter="url(#filter1_d_184_3116)">
<path d="M27.7641 14.2258C27.6079 14.0641 27.4507 13.9013 27.2926 13.7373H13.8053C13.6474 13.901 13.4902 14.0639 13.3337 14.2258C10.8985 16.7454 8.59817 19.1254 6.88586 21.7894C4.91705 24.8528 4 27.8557 4 31.2403C4 35.1673 6.11735 38.1655 10.1229 39.9105C13.5489 41.403 17.6831 41.7163 20.548 41.7163C23.4338 41.7163 27.5909 41.4029 31.0069 39.9099C34.9918 38.1683 37.0982 35.1704 37.0982 31.2403C37.0982 27.8558 36.1812 24.8527 34.2124 21.7894C32.5 19.1254 30.1997 16.7454 27.7641 14.2258ZM20.7949 25.3514C21.6552 25.5324 22.5447 25.7198 23.3077 26.2226C24.2991 26.8761 24.8018 27.8861 24.8018 29.2247C24.8018 30.9917 23.5114 32.487 21.7488 32.9632V33.5828C21.7488 33.9014 21.6223 34.2069 21.397 34.4322C21.1718 34.6574 20.8662 34.784 20.5477 34.784C20.2291 34.784 19.9236 34.6574 19.6983 34.4322C19.473 34.2069 19.3465 33.9014 19.3465 33.5828V32.9632C17.584 32.487 16.2935 30.9917 16.2935 29.2247C16.2935 28.9061 16.4201 28.6006 16.6453 28.3753C16.8706 28.15 17.1761 28.0235 17.4947 28.0235C17.8133 28.0235 18.1188 28.15 18.344 28.3753C18.5693 28.6006 18.6959 28.9061 18.6959 29.2247C18.6959 30.0495 19.5266 30.7201 20.5477 30.7201C21.5687 30.7201 22.3995 30.0492 22.3995 29.2247C22.3995 28.2957 22.1052 28.082 20.3003 27.7023C19.4401 27.5213 18.5505 27.3339 17.7876 26.8312C16.7962 26.1776 16.2935 25.1676 16.2935 23.8291C16.2935 22.0609 17.584 20.5648 19.3465 20.0884V19.4709C19.3465 19.1523 19.473 18.8468 19.6983 18.6215C19.9236 18.3963 20.2291 18.2697 20.5477 18.2697C20.8662 18.2697 21.1718 18.3963 21.397 18.6215C21.6223 18.8468 21.7488 19.1523 21.7488 19.4709V20.0881C23.5114 20.5646 24.8018 22.0607 24.8018 23.8288C24.8018 24.1474 24.6753 24.4529 24.45 24.6782C24.2247 24.9035 23.9192 25.03 23.6006 25.03C23.2821 25.03 22.9765 24.9035 22.7513 24.6782C22.526 24.4529 22.3995 24.1474 22.3995 23.8288C22.3995 23.003 21.5687 22.3314 20.5477 22.3314C19.5266 22.3314 18.6959 23.0032 18.6959 23.8288C18.6962 24.7582 18.9905 24.9716 20.7953 25.3514H20.7949Z" fill="white"/>
</g>
<defs>
<filter id="filter0_d_184_3116" x="6.66797" y="0" width="27.7578" height="17.3357" filterUnits="userSpaceOnUse" color-interpolation-filters="sRGB">
<feFlood flood-opacity="0" result="BackgroundImageFix"/>
<feColorMatrix in="SourceAlpha" type="matrix" values="0 0 0 0 0 0 0 0 0 0 0 0 0 0 0 0 0 0 127 0" result="hardAlpha"/>
<feOffset dy="2"/>
<feGaussianBlur stdDeviation="2"/>
<feComposite in2="hardAlpha" operator="out"/>
<feColorMatrix type="matrix" values="0 0 0 0 0 0 0 0 0 0 0 0 0 0 0 0 0 0 0.54 0"/>
<feBlend mode="normal" in2="BackgroundImageFix" result="effect1_dropShadow_184_3116"/>
<feBlend mode="normal" in="SourceGraphic" in2="effect1_dropShadow_184_3116" result="shape"/>
</filter>
<filter id="filter1_d_184_3116" x="0" y="11.7373" width="41.0977" height="35.979" filterUnits="userSpaceOnUse" color-interpolation-filters="sRGB">
<feFlood flood-opacity="0" result="BackgroundImageFix"/>
<feColorMatrix in="SourceAlpha" type="matrix" values="0 0 0 0 0 0 0 0 0 0 0 0 0 0 0 0 0 0 127 0" result="hardAlpha"/>
<feOffset dy="2"/>
<feGaussianBlur stdDeviation="2"/>
<feComposite in2="hardAlpha" operator="out"/>
<feColorMatrix type="matrix" values="0 0 0 0 0 0 0 0 0 0 0 0 0 0 0 0 0 0 0.54 0"/>
<feBlend mode="normal" in2="BackgroundImageFix" result="effect1_dropShadow_184_3116"/>
<feBlend mode="normal" in="SourceGraphic" in2="effect1_dropShadow_184_3116" result="shape"/>
</filter>
</defs>
</svg>
