<svg width="50" height="47" viewBox="0 0 50 47" fill="none" xmlns="http://www.w3.org/2000/svg">
<path d="M0 13.4279L24.6148 26.8565L49.239 13.4286L24.618 0L0 13.4279Z" fill="#E95B4D"/>
<path d="M24.6148 46.9993V26.8565L49.239 13.4279V33.5707L24.6148 46.9993Z" fill="#B1463C"/>
<path d="M24.618 26.8565L0 13.4279V33.5707L24.6148 46.9993L24.618 26.8565Z" fill="#CE4F43"/>
<path d="M6.15286 10.0724V13.4288C6.15286 15.2832 8.90714 16.7859 12.3057 16.7859C15.7043 16.7859 18.4618 15.283 18.4618 13.4288V10.0724H6.15286Z" fill="url(#paint0_linear_159_312)"/>
<path d="M12.3064 13.4255C8.91614 13.4255 6.15796 11.9216 6.15796 10.0729C6.15796 8.22414 8.91614 6.72 12.3064 6.72C15.6984 6.72 18.4582 8.22396 18.4582 10.0729C18.458 11.9214 15.6984 13.4255 12.3064 13.4255Z" fill="#E95B4D"/>
<path d="M12.3059 6.72396C15.6956 6.72396 18.4533 8.22615 18.4533 10.0724C18.4533 11.9186 15.6956 13.4206 12.3059 13.4206C8.91814 13.4206 6.16173 11.9186 6.16173 10.0724C6.16173 8.22615 8.91796 6.72396 12.3059 6.72396ZM12.3059 6.7151C8.90715 6.7151 6.15305 8.21799 6.15305 10.0722C6.15305 11.9264 8.90732 13.4293 12.3059 13.4293C15.7045 13.4293 18.462 11.9266 18.462 10.0722C18.462 8.21782 15.7047 6.7151 12.3059 6.7151Z" fill="#CE4F43"/>
<path d="M18.4619 16.7866V20.143C18.4619 21.9972 21.216 23.5001 24.6148 23.5001C28.0152 23.5001 30.7725 21.9972 30.7725 20.143V16.7866H18.4619Z" fill="url(#paint1_linear_159_312)"/>
<path d="M24.6153 20.1397C21.225 20.1397 18.4668 18.6358 18.4668 16.7871C18.4668 14.9384 21.225 13.4342 24.6153 13.4342C28.0082 13.4342 30.7685 14.9382 30.7685 16.7871C30.7685 18.6358 28.0082 20.1397 24.6153 20.1397Z" fill="#E95B4D"/>
<path d="M24.6148 13.4382C28.0052 13.4382 30.7636 14.9404 30.7636 16.7866C30.7636 18.6328 28.0051 20.1348 24.6148 20.1348C21.227 20.1348 18.4708 18.6328 18.4708 16.7866C18.4708 14.9404 21.227 13.4382 24.6148 13.4382ZM24.6148 13.4293C21.216 13.4293 18.4619 14.9322 18.4619 16.7864C18.4619 18.6406 21.216 20.1435 24.6148 20.1435C28.0152 20.1435 30.7725 18.6408 30.7725 16.7864C30.7725 14.932 28.0152 13.4293 24.6148 13.4293Z" fill="#CE4F43"/>
<path d="M18.4619 3.35728V6.71368C18.4619 8.56806 21.216 10.0708 24.6148 10.0708C28.0152 10.0708 30.7725 8.56789 30.7725 6.71368V3.35728H18.4619Z" fill="url(#paint2_linear_159_312)"/>
<path d="M24.6153 6.71043C21.225 6.71043 18.4668 5.20647 18.4668 3.35776C18.4668 1.50904 21.225 0.0049057 24.6153 0.0049057C28.0082 0.0049057 30.7685 1.50887 30.7685 3.35776C30.7685 5.20629 28.0082 6.71043 24.6153 6.71043Z" fill="#E95B4D"/>
<path d="M24.6148 0.00886251C28.0052 0.00886251 30.7636 1.51105 30.7636 3.35728C30.7636 5.20351 28.0051 6.70552 24.6148 6.70552C21.227 6.70552 18.4708 5.20351 18.4708 3.35728C18.4708 1.51105 21.227 0.00886251 24.6148 0.00886251ZM24.6148 0C21.216 0 18.4619 1.5029 18.4619 3.3571C18.4619 5.21131 21.216 6.71421 24.6148 6.71421C28.0152 6.71421 30.7725 5.21149 30.7725 3.3571C30.7725 1.50272 28.0152 0 24.6148 0Z" fill="#CE4F43"/>
<path d="M30.7724 10.0715V13.4279C30.7724 15.2823 33.5265 16.785 36.9253 16.785C40.3242 16.785 43.083 15.2823 43.083 13.4279V10.0715H30.7724Z" fill="url(#paint3_linear_159_312)"/>
<path d="M36.9258 13.4246C33.5355 13.4246 30.7773 11.9207 30.7773 10.0719C30.7773 8.22323 33.5355 6.71909 36.9258 6.71909C40.3187 6.71909 43.079 8.22305 43.079 10.0719C43.079 11.9207 40.3187 13.4246 36.9258 13.4246Z" fill="#E95B4D"/>
<path d="M36.9253 6.72307C40.3157 6.72307 43.0741 8.22526 43.0741 10.0715C43.0741 11.9177 40.3156 13.4197 36.9253 13.4197C33.5375 13.4197 30.7813 11.9177 30.7813 10.0715C30.7813 8.22526 33.5375 6.72307 36.9253 6.72307ZM36.9253 6.71439C33.5265 6.71439 30.7724 8.21728 30.7724 10.0715C30.7724 11.9257 33.5265 13.4286 36.9253 13.4286C40.3242 13.4286 43.083 11.9259 43.083 10.0715C43.083 8.21711 40.3242 6.71439 36.9253 6.71439Z" fill="#CE4F43"/>
<defs>
<linearGradient id="paint0_linear_159_312" x1="6.15286" y1="13.4291" x2="18.4619" y2="13.4291" gradientUnits="userSpaceOnUse">
<stop stop-color="#CE4E43"/>
<stop offset="1" stop-color="#B1463D"/>
</linearGradient>
<linearGradient id="paint1_linear_159_312" x1="18.4619" y1="20.1433" x2="30.7725" y2="20.1433" gradientUnits="userSpaceOnUse">
<stop stop-color="#CE4E43"/>
<stop offset="1" stop-color="#B1463D"/>
</linearGradient>
<linearGradient id="paint2_linear_159_312" x1="18.4619" y1="6.71403" x2="30.7725" y2="6.71403" gradientUnits="userSpaceOnUse">
<stop stop-color="#CE4E43"/>
<stop offset="1" stop-color="#B1463D"/>
</linearGradient>
<linearGradient id="paint3_linear_159_312" x1="30.7724" y1="13.4282" x2="43.083" y2="13.4282" gradientUnits="userSpaceOnUse">
<stop stop-color="#CE4E43"/>
<stop offset="1" stop-color="#B1463D"/>
</linearGradient>
</defs>
</svg>
