<svg width="46" height="48" viewBox="0 0 46 48" fill="none" xmlns="http://www.w3.org/2000/svg">
<g filter="url(#filter0_d_184_3098)">
<path d="M27.5137 36.6025V37.7594C27.5137 38.6801 26.8375 39.446 25.9575 39.5763L25.6724 40.6274C25.5176 41.1977 25.0043 41.5969 24.4095 41.5969H21.5823C20.9876 41.5969 20.4743 41.1977 20.3195 40.6274L20.0425 39.5763C19.1544 39.4378 18.4781 38.6801 18.4781 37.7513V36.5943C18.4781 35.9751 18.9751 35.4781 19.5943 35.4781H26.3975C27.0167 35.4863 27.5137 35.9833 27.5137 36.6025ZM32.7526 21.0081C32.7526 23.6398 31.7097 26.027 30.015 27.7787C28.7277 29.1149 27.8967 30.8178 27.6196 32.6346C27.4974 33.4168 26.8212 33.9953 26.0227 33.9953H19.9691C19.1788 33.9953 18.4944 33.425 18.3804 32.6428C18.0952 30.8259 17.256 29.0986 15.9687 27.7706C14.3066 26.0433 13.2719 23.6968 13.2474 21.1141C13.1904 15.6878 17.5086 11.2963 22.9348 11.2556C28.3529 11.2148 32.7526 15.5982 32.7526 21.0081ZM24.0999 15.1012C24.0999 14.4983 23.6111 14.0013 23 14.0013C19.1218 14.0013 15.9605 17.1544 15.9605 21.0407C15.9605 21.6437 16.4494 22.1407 17.0605 22.1407C17.6634 22.1407 18.1604 21.6518 18.1604 21.0407C18.1604 18.3684 20.3358 16.2011 23 16.2011C23.6111 16.2011 24.0999 15.7123 24.0999 15.1012ZM23 8.0536C23.6029 8.0536 24.0999 7.56475 24.0999 6.95369V3.09991C24.0999 2.497 23.6111 2 23 2C22.3889 2 21.9001 2.48885 21.9001 3.09991V6.95369C21.9001 7.56475 22.3971 8.0536 23 8.0536ZM10.0536 21C10.0536 20.3971 9.56475 19.9001 8.95369 19.9001H5.09991C4.497 19.9001 4 20.3889 4 21C4 21.6029 4.48885 22.0999 5.09991 22.0999H8.95369C9.56475 22.0999 10.0536 21.6111 10.0536 21ZM40.9001 19.9001H37.0463C36.4434 19.9001 35.9464 20.3889 35.9464 21C35.9464 21.6029 36.4352 22.0999 37.0463 22.0999H40.9001C41.503 22.0999 42 21.6111 42 21C42 20.3971 41.5111 19.9001 40.9001 19.9001ZM12.2942 30.1578L9.56475 32.8872C9.13293 33.319 9.13293 34.0116 9.56475 34.4434C9.77659 34.6552 10.0617 34.7611 10.3388 34.7611C10.6158 34.7611 10.9009 34.6552 11.1128 34.4434L13.8422 31.714C14.274 31.2822 14.274 30.5896 13.8422 30.1578C13.4185 29.726 12.7178 29.726 12.2942 30.1578ZM32.9318 12.1681C33.2088 12.1681 33.494 12.0622 33.7058 11.8503L36.4352 9.12093C36.8671 8.68911 36.8671 7.99657 36.4352 7.56475C36.0034 7.13293 35.3109 7.13293 34.8791 7.56475L32.1497 10.2942C31.7178 10.726 31.7178 11.4185 32.1497 11.8503C32.3696 12.0622 32.6467 12.1681 32.9318 12.1681ZM12.2942 11.8422C12.506 12.054 12.7912 12.1599 13.0682 12.1599C13.3452 12.1599 13.6304 12.054 13.8422 11.8422C14.274 11.4104 14.274 10.7178 13.8422 10.286L11.1128 7.5566C10.681 7.12479 9.98842 7.12479 9.5566 7.5566C9.12479 7.98842 9.12479 8.68096 9.5566 9.11278L12.2942 11.8422ZM33.7058 30.1578C33.274 29.726 32.5815 29.726 32.1497 30.1578C31.7178 30.5896 31.7178 31.2822 32.1497 31.714L34.8791 34.4434C35.0909 34.6552 35.3761 34.7611 35.6531 34.7611C35.9301 34.7611 36.2153 34.6552 36.4271 34.4434C36.8589 34.0116 36.8589 33.319 36.4271 32.8872L33.7058 30.1578Z" fill="white"/>
</g>
<defs>
<filter id="filter0_d_184_3098" x="0" y="0" width="46" height="47.5969" filterUnits="userSpaceOnUse" color-interpolation-filters="sRGB">
<feFlood flood-opacity="0" result="BackgroundImageFix"/>
<feColorMatrix in="SourceAlpha" type="matrix" values="0 0 0 0 0 0 0 0 0 0 0 0 0 0 0 0 0 0 127 0" result="hardAlpha"/>
<feOffset dy="2"/>
<feGaussianBlur stdDeviation="2"/>
<feComposite in2="hardAlpha" operator="out"/>
<feColorMatrix type="matrix" values="0 0 0 0 0 0 0 0 0 0 0 0 0 0 0 0 0 0 0.54 0"/>
<feBlend mode="normal" in2="BackgroundImageFix" result="effect1_dropShadow_184_3098"/>
<feBlend mode="normal" in="SourceGraphic" in2="effect1_dropShadow_184_3098" result="shape"/>
</filter>
</defs>
</svg>
