<svg width="34" height="33" viewBox="0 0 34 33" fill="none" xmlns="http://www.w3.org/2000/svg">
<circle cx="16.7271" cy="15.6121" r="14.6121" fill="#111111" stroke="#FF90E8" stroke-width="2"/>
<path d="M13.8033 23V22.18L15.1433 21.92C15.1566 21.4 15.1633 20.88 15.1633 20.36C15.1766 19.84 15.1833 19.32 15.1833 18.8V14.64H13.7033V13.6L15.2433 13.4C15.35 12.4133 15.51 11.62 15.7233 11.02C15.95 10.4067 16.2966 9.86667 16.7633 9.4C17.2166 8.94667 17.71 8.62667 18.2433 8.44C18.79 8.24 19.3166 8.14 19.8233 8.14C20.3433 8.14 20.8033 8.23333 21.2033 8.42C21.6166 8.60667 21.8766 8.93333 21.9833 9.4C21.97 9.70667 21.8433 9.96667 21.6033 10.18C21.3766 10.3933 21.0633 10.5 20.6633 10.5C20.09 10.5 19.55 10.1667 19.0433 9.5L18.6833 9.14C18.6433 9.16667 18.5966 9.20667 18.5433 9.26C18.1833 9.62 17.9233 10.1267 17.7633 10.78C17.6033 11.4333 17.5366 12.3133 17.5633 13.42H20.0233V14.64H17.6033V18.8C17.6033 19.3067 17.6033 19.82 17.6033 20.34C17.6166 20.8467 17.63 21.36 17.6433 21.88L19.3233 22.18V23H13.8033Z" fill="white"/>
</svg>
