<svg width="98" height="97" viewBox="0 0 98 97" fill="none" xmlns="http://www.w3.org/2000/svg">
<path d="M48.9248 0.5C75.6767 0.500055 97.3496 21.8324 97.3496 48.1299C97.3496 74.4273 75.6767 95.7597 48.9248 95.7598C22.1729 95.7598 0.500048 74.4274 0.5 48.1299C0.5 21.8324 22.1728 0.5 48.9248 0.5Z" fill="#FF90E8" stroke="black"/>
<path d="M37.6388 70V67.417L41.8598 66.598C41.9018 64.96 41.9228 63.322 41.9228 61.684C41.9648 60.046 41.9858 58.408 41.9858 56.77V43.666H37.3238V40.39L42.1748 39.76C42.5108 36.652 43.0148 34.153 43.6868 32.263C44.4008 30.331 45.4928 28.63 46.9628 27.16C48.3908 25.732 49.9448 24.724 51.6248 24.136C53.3468 23.506 55.0058 23.191 56.6018 23.191C58.2398 23.191 59.6888 23.485 60.9488 24.073C62.2508 24.661 63.0698 25.69 63.4058 27.16C63.3638 28.126 62.9648 28.945 62.2088 29.617C61.4948 30.289 60.5078 30.625 59.2478 30.625C57.4418 30.625 55.7408 29.575 54.1448 27.475L53.0108 26.341C52.8848 26.425 52.7378 26.551 52.5698 26.719C51.4358 27.853 50.6168 29.449 50.1128 31.507C49.6088 33.565 49.3988 36.337 49.4828 39.823H57.2318V43.666H49.6088V56.77C49.6088 58.366 49.6088 59.983 49.6088 61.621C49.6508 63.217 49.6928 64.834 49.7348 66.472L55.0268 67.417V70H37.6388Z" fill="#181818"/>
</svg>
