<svg width="100" height="100" viewBox="0 0 100 100" fill="none" xmlns="http://www.w3.org/2000/svg">
<path d="M51.0754 0.5C77.8274 0.500055 99.5002 21.8324 99.5002 48.1299C99.5002 74.4273 77.8273 95.7597 51.0754 95.7598C24.3235 95.7598 2.65068 74.4274 2.65063 48.1299C2.65063 21.8324 24.3235 0.5 51.0754 0.5Z" fill="#FF90E8" stroke="black"/>
<path d="M39.7142 71.9257V69.3427L43.9352 68.5237C43.9772 66.8857 43.9982 65.2477 43.9982 63.6097C44.0402 61.9717 44.0612 60.3337 44.0612 58.6957V45.5917H39.3992V42.3157L44.2502 41.6857C44.5862 38.5777 45.0902 36.0787 45.7622 34.1887C46.4762 32.2567 47.5682 30.5557 49.0382 29.0857C50.4662 27.6577 52.0202 26.6497 53.7002 26.0617C55.4222 25.4317 57.0812 25.1167 58.6772 25.1167C60.3152 25.1167 61.7642 25.4107 63.0242 25.9987C64.3262 26.5867 65.1452 27.6157 65.4812 29.0857C65.4392 30.0517 65.0402 30.8707 64.2842 31.5427C63.5702 32.2147 62.5832 32.5507 61.3232 32.5507C59.5172 32.5507 57.8162 31.5007 56.2202 29.4007L55.0862 28.2667C54.9602 28.3507 54.8132 28.4767 54.6452 28.6447C53.5112 29.7787 52.6922 31.3747 52.1882 33.4327C51.6842 35.4907 51.4742 38.2627 51.5582 41.7487H59.3072V45.5917H51.6842V58.6957C51.6842 60.2917 51.6842 61.9087 51.6842 63.5467C51.7262 65.1427 51.7682 66.7597 51.8102 68.3977L57.1022 69.3427V71.9257H39.7142Z" fill="#181818"/>
</svg>
