<svg width="31" height="31" viewBox="0 0 31 31" fill="none" xmlns="http://www.w3.org/2000/svg">
<path d="M16.0255 3.18294L25.0672 6.07627C25.7802 6.30533 26.2641 6.96838 26.2641 7.71583V18.9447C26.2641 24.1631 18.1972 27.1218 16.0307 27.8228C15.681 27.9364 15.3194 27.9364 14.9698 27.8228C12.8032 27.1218 4.73633 24.1631 4.73633 18.9447V7.71583C4.73633 6.96666 5.22027 6.30361 5.93327 6.07627L14.9749 3.18294C15.3159 3.07444 15.6828 3.07444 16.0255 3.18294Z" fill="#FFBBA8"/>
<path d="M16.0255 3.18294L25.0672 6.07627C25.7802 6.30533 26.2641 6.96838 26.2641 7.71583V18.9447C26.2641 24.1631 18.1972 27.1218 16.0307 27.8228C15.681 27.9364 15.3194 27.9364 14.9698 27.8228C12.8032 27.1218 4.73633 24.1631 4.73633 18.9447V7.71583C4.73633 6.96666 5.22027 6.30361 5.93327 6.07627L14.9749 3.18294C15.3159 3.07444 15.6828 3.07444 16.0255 3.18294Z" stroke="#FF3800" stroke-width="1.5" stroke-linecap="round" stroke-linejoin="round"/>
<path d="M11.1895 16.7917L13.9605 19.375L19.8109 11.625" stroke="#FF3800" stroke-width="1.5" stroke-linecap="round" stroke-linejoin="round"/>
</svg>
