<svg width="236" height="14" viewBox="0 0 236 14" fill="none" xmlns="http://www.w3.org/2000/svg">
<g clip-path="url(#clip0_145_151)">
<mask id="mask0_145_151" style="mask-type:luminance" maskUnits="userSpaceOnUse" x="0" y="0" width="236" height="14">
<path d="M236 0H0V14H236V0Z" fill="white"/>
</mask>
<g mask="url(#mask0_145_151)">
<path d="M236.037 6.78461C236.498 4.28935 231.572 4.72239 229.998 4.08299C211.464 1.09409 177.388 0.553649 158.608 0.53869C143.432 0.582991 128.263 0.187155 113.089 0.630936C101.893 0.71321 90.7368 1.81307 79.543 2.04685C55.9695 3.08055 32.2769 4.10869 9.01406 8.22201C6.61009 8.8522 4.03063 9.03803 1.75079 10.025C-3.99006 14.4327 7.02392 13.8894 9.42964 13.3301C79.0732 4.18157 80.0092 4.45811 133.257 3.55502C156.805 3.07403 180.319 4.8319 216.595 7.24546C217.517 7.32294 218.342 6.4722 218.151 5.56009C221.709 5.86554 225.258 6.27344 228.792 6.78327C230.628 7.13672 232.473 7.47042 234.296 7.88198C235.076 8.04288 235.856 7.5525 236.037 6.78653V6.78461Z" fill="#FF3800"/>
</g>
</g>
<defs>
<clipPath id="clip0_145_151">
<rect width="236" height="14" fill="white"/>
</clipPath>
</defs>
</svg>
