<svg width="118" height="14" viewBox="0 0 118 14" fill="none" xmlns="http://www.w3.org/2000/svg">
<g clip-path="url(#clip0_62_49)">
<path d="M236.037 6.78464C236.498 4.28938 231.572 4.72242 229.998 4.08302C211.464 1.09412 177.388 0.553679 158.608 0.53872C143.432 0.583021 128.263 0.187185 113.089 0.630966C101.893 0.71324 90.7368 1.8131 79.543 2.04688C55.9695 3.08058 32.2769 4.10872 9.01406 8.22204C6.61009 8.85223 4.03063 9.03806 1.75079 10.025C-3.99006 14.4327 7.02392 13.8894 9.42964 13.3301C79.0732 4.1816 80.0092 4.45814 133.257 3.55505C156.805 3.07406 180.319 4.83193 216.595 7.24549C217.517 7.32297 218.342 6.47223 218.151 5.56012C221.709 5.86557 225.258 6.27347 228.792 6.7833C230.628 7.13675 232.473 7.47045 234.296 7.88201C235.076 8.04291 235.856 7.55253 236.037 6.78656V6.78464Z" fill="url(#paint0_linear_62_49)"/>
</g>
<defs>
<linearGradient id="paint0_linear_62_49" x1="11797.8" y1="0.418365" x2="11797.8" y2="1328.71" gradientUnits="userSpaceOnUse">
<stop stop-color="#C084FC"/>
<stop offset="0.95" stop-color="#795BE9"/>
</linearGradient>
<clipPath id="clip0_62_49">
<rect width="236" height="14" fill="white"/>
</clipPath>
</defs>
</svg>
