<svg width="29" height="29" viewBox="0 0 29 29" fill="none" xmlns="http://www.w3.org/2000/svg">
<g clip-path="url(#clip0_176_6101)">
<mask id="mask0_176_6101" style="mask-type:luminance" maskUnits="userSpaceOnUse" x="0" y="0" width="29" height="29">
<path d="M29 0H0V29H29V0Z" fill="white"/>
</mask>
<g mask="url(#mask0_176_6101)">
<path fill-rule="evenodd" clip-rule="evenodd" d="M14.5002 1.6123C7.38199 1.6123 1.61133 7.38278 1.61133 14.5012C1.61133 21.6196 7.38199 27.3901 14.5002 27.3901C21.6184 27.3901 27.3891 21.6196 27.3891 14.5012C27.3891 7.38278 21.6184 1.6123 14.5002 1.6123ZM14.5002 9.66785C11.8309 9.66785 9.66688 11.8318 9.66688 14.5012C9.66688 17.1707 11.8309 19.3346 14.5002 19.3346C17.1695 19.3346 19.3336 17.1707 19.3336 14.5012C19.3336 11.8318 17.1695 9.66785 14.5002 9.66785Z" fill="#FFBBA8"/>
<path fill-rule="evenodd" clip-rule="evenodd" d="M9.70802 1.6685C11.201 1.11129 12.8149 0.807617 14.4983 0.807617C16.1816 0.807617 17.7956 1.11129 19.2884 1.6685C19.9137 1.90184 20.2314 2.59781 19.9981 3.22302L17.7442 9.26305C17.6378 9.54787 17.4281 9.78215 17.1568 9.9192L17.1535 9.92082C16.8521 10.0731 16.5007 10.0922 16.1846 9.97364C15.6601 9.77695 15.0931 9.66873 14.4966 9.66873C13.8989 9.66873 13.3333 9.77579 12.8079 9.97235C12.5076 10.0847 12.1749 10.0731 11.8832 9.94003C11.5914 9.807 11.3645 9.56346 11.2524 9.26305L8.99846 3.22302C8.76515 2.59781 9.08283 1.90184 9.70802 1.6685Z" fill="#FF3800"/>
<path fill-rule="evenodd" clip-rule="evenodd" d="M25.7768 9.00041C26.4019 8.7671 27.0979 9.08478 27.3313 9.70998C27.8885 11.203 28.1922 12.8169 28.1922 14.5002C28.1922 16.182 27.8885 17.7959 27.3313 19.2889C27.0979 19.914 26.4019 20.2317 25.7768 19.9984L19.7367 17.7445C19.5745 17.6839 19.4272 17.5892 19.3048 17.4669L19.3032 17.4653C18.9681 17.1302 18.8598 16.6302 19.0262 16.1865C19.2228 15.662 19.3311 15.0951 19.3311 14.4986C19.3311 13.9008 19.2239 13.3352 19.0274 12.8098C18.9151 12.5095 18.9267 12.1768 19.0597 11.8851C19.1928 11.5934 19.4363 11.3665 19.7367 11.2544L25.7768 9.00041Z" fill="#FF3800"/>
<path fill-rule="evenodd" clip-rule="evenodd" d="M11.8536 19.0776C12.1536 18.9284 12.5021 18.9105 12.8159 19.0281C13.3404 19.2248 13.9073 19.3329 14.5038 19.3329C15.1015 19.3329 15.6671 19.226 16.1925 19.0294C16.4928 18.9169 16.8255 18.9287 17.1173 19.0616C17.4091 19.1947 17.6359 19.4383 17.7481 19.7386L20.002 25.7787C20.2353 26.4039 19.9176 27.0998 19.2925 27.3332C17.7994 27.8903 16.1854 28.194 14.5022 28.194C12.8188 28.194 11.2049 27.8903 9.71194 27.3332C9.08674 27.0998 8.76906 26.4039 9.00236 25.7787L11.2563 19.7386C11.3635 19.4513 11.5758 19.2156 11.8504 19.0792L11.8536 19.0776Z" fill="#FF3800"/>
<path fill-rule="evenodd" clip-rule="evenodd" d="M1.66752 9.71193C1.90086 9.08674 2.59684 8.76906 3.22205 9.00236L9.26209 11.2563C9.42239 11.3162 9.56818 11.4094 9.68977 11.5297L9.6914 11.5314C10.0297 11.8663 10.1398 12.3686 9.97265 12.8143C9.77597 13.3388 9.66775 13.9057 9.66775 14.5022C9.66775 15.1 9.77482 15.6656 9.97136 16.1909C10.0837 16.4913 10.0721 16.8239 9.93905 17.1157C9.80602 17.4075 9.56248 17.6343 9.26207 17.7465L3.22203 20.0004C2.59683 20.2337 1.90086 19.916 1.66752 19.2909C1.11032 17.7979 0.806641 16.1839 0.806641 14.5006C0.806641 12.8188 1.11034 11.2048 1.66752 9.71193Z" fill="#FF3800"/>
</g>
</g>
<defs>
<clipPath id="clip0_176_6101">
<rect width="29" height="29" fill="white"/>
</clipPath>
</defs>
</svg>
